<svg width="133" height="48" viewBox="0 0 133 48" fill="none" xmlns="http://www.w3.org/2000/svg">
<path opacity="0.4" d="M59.0948 45.0707C73.5362 44.7626 89.5744 43.6532 105.335 40.325C110.264 39.2773 115.055 38.0446 119.568 36.0108C121.581 35.0863 123.595 34.0386 125.4 32.8059C126.719 31.8814 127.83 30.6488 128.663 29.3545C130.677 26.2729 130.121 23.1297 127.066 20.8493C125.261 19.4934 123.248 18.384 121.095 17.4595C114.986 14.7477 108.459 12.9604 101.863 11.5428C96.3785 10.3718 90.7547 9.87875 85.1309 9.57059C84.4366 9.50896 83.7423 9.57059 83.1869 9.32406C82.7009 9.13916 82.1454 8.58447 82.1454 8.21468C82.2149 7.72162 82.7703 7.22857 83.2563 6.98204C83.7423 6.73551 84.4366 6.85877 84.992 6.85877C94.1567 6.79714 102.974 8.39958 111.514 11.0498C115.68 12.344 119.776 13.8848 123.803 15.5489C125.886 16.4118 127.899 17.706 129.566 19.1236C133.176 22.1435 133.94 26.1496 131.857 30.1557C130.816 32.2512 129.149 33.9153 127.205 35.3328C123.664 37.8598 119.637 39.4622 115.472 40.7565C107.348 43.2834 98.9474 44.7626 90.4075 45.8103C80.2708 47.1046 70.1341 47.7825 59.8586 47.9674C47.639 48.1523 35.4194 47.5976 23.4775 45.0707C18.6869 44.0846 14.1045 42.6054 9.86931 40.3867C7.09213 38.9075 4.59267 37.2434 2.64864 34.9014C-0.475687 31.1418 -0.822835 27.1974 1.53777 23.0064C2.85693 20.6644 4.73153 18.7538 6.88384 17.0281C12.5771 12.4673 19.2423 9.38569 26.3241 6.9204C35.5582 3.71553 45.2089 1.98983 54.9985 0.942085C67.5652 -0.413823 80.132 -0.228926 92.6987 1.00372C103.53 2.05146 114.222 3.8388 124.497 7.2902C125.817 7.72162 127.066 8.27631 128.316 8.831C129.219 9.20079 129.774 9.75548 129.427 10.68C129.149 11.3579 128.247 11.6044 127.136 11.1114C120.679 8.52284 113.805 7.22857 106.932 5.93429C98.8779 4.45512 90.6852 3.6539 82.4926 3.16084C67.9124 2.35962 53.471 3.34574 39.3074 6.42735C31.6702 7.96815 24.3106 10.3718 17.4371 13.8848C13.8962 15.6722 10.5636 17.7677 7.71699 20.4179C6.67555 21.404 5.70354 22.5133 4.87039 23.6844C2.37092 27.3207 2.7875 30.9569 6.12012 33.9769C7.78642 35.5177 9.79988 36.812 11.8828 37.983C16.4651 40.5099 21.6029 41.8042 26.8795 42.7287C36.8774 44.516 47.0835 45.1323 59.0948 45.0707Z" fill="#FBF0D1" style="fill:#FBF0D1;fill:color(display-p3 0.9843 0.9412 0.8196);fill-opacity:1;"/>
</svg>
