<svg width="187" height="51" viewBox="0 0 187 51" fill="none" xmlns="http://www.w3.org/2000/svg">
<rect x="0.5" y="0.5" width="186" height="50" rx="7.5" stroke="black" style="stroke:black;stroke:black;stroke-opacity:1;"/>
<g clip-path="url(#clip0_248_3082)">
<path d="M53.6534 20.5369H49.877V14.4822H50.8165V19.6726H53.6534V20.5369Z" fill="black" style="fill:black;fill:black;fill-opacity:1;"/>
<path d="M54.7422 14.616C54.7422 14.3015 54.9902 14.0623 55.3252 14.0623C55.6611 14.0623 55.9092 14.3016 55.9092 14.616C55.9092 14.9265 55.6612 15.1658 55.3252 15.1658C54.9902 15.1658 54.7422 14.9265 54.7422 14.616ZM54.877 15.9676H55.7745V20.5369H54.877V15.9676Z" fill="black" style="fill:black;fill:black;fill-opacity:1;"/>
<path d="M58.8975 15.8796C59.9258 15.8796 60.5977 16.3581 60.6856 17.1638H59.8213C59.7373 16.8279 59.4102 16.614 58.8975 16.614C58.3946 16.614 58.0127 16.8533 58.0127 17.2097C58.0127 17.4822 58.2432 17.654 58.7383 17.7673L59.4981 17.9441C60.3663 18.1453 60.7735 18.5183 60.7735 19.1902C60.7735 20.0506 59.9717 20.6248 58.8809 20.6248C57.794 20.6248 57.085 20.1346 57.0059 19.324H57.9073C58.0206 19.6765 58.3565 19.8953 58.9024 19.8953C59.4649 19.8953 59.8633 19.6433 59.8633 19.2781C59.8633 19.0056 59.6494 18.8289 59.1914 18.7205L58.3946 18.5358C57.5255 18.3297 57.1231 17.9391 57.1231 17.2594C57.1231 16.4499 57.8653 15.8796 58.8975 15.8796Z" fill="black" style="fill:black;fill:black;fill-opacity:1;"/>
<path d="M63.171 14.8308V15.988H64.1612V16.7478H63.171V19.0974C63.171 19.5759 63.3683 19.7859 63.8165 19.7859C63.9552 19.7859 64.0353 19.7781 64.1612 19.7654V20.5164C64.0137 20.5418 63.8458 20.5623 63.67 20.5623C62.6671 20.5623 62.2686 20.2098 62.2686 19.3289V16.7478H61.543V15.9881H62.2686V14.8308H63.171Z" fill="black" style="fill:black;fill:black;fill-opacity:1;"/>
<path d="M69.1621 19.3034C68.956 20.1218 68.2266 20.6247 67.1816 20.6247C65.872 20.6247 65.0703 19.7272 65.0703 18.2673C65.0703 16.8064 65.8887 15.8796 67.1767 15.8796C68.4482 15.8796 69.2167 16.7478 69.2167 18.1833V18.4978H65.9892V18.5486C66.0185 19.3494 66.4843 19.8572 67.206 19.8572C67.7519 19.8572 68.1249 19.6599 68.2929 19.3035L69.1621 19.3034ZM65.9893 17.8307H68.2979C68.2764 17.1129 67.8399 16.6471 67.1729 16.6471C66.5059 16.6471 66.0401 17.1169 65.9893 17.8307Z" fill="black" style="fill:black;fill:black;fill-opacity:1;"/>
<path d="M70.4219 15.9675H71.291V16.6931H71.3584C71.5801 16.1853 72.0332 15.8796 72.7217 15.8796C73.7412 15.8796 74.3037 16.4919 74.3037 17.5788V20.5368H73.4014V17.8053C73.4014 17.0709 73.083 16.7057 72.4151 16.7057C71.7481 16.7057 71.3243 17.151 71.3243 17.8639V20.5368H70.422L70.4219 15.9675Z" fill="black" style="fill:black;fill:black;fill-opacity:1;"/>
<path d="M77.9434 18.2497C77.9434 16.777 78.7657 15.8796 80.1006 15.8796C81.4307 15.8796 82.2529 16.7771 82.2529 18.2497C82.2529 19.7311 81.4345 20.6247 80.1006 20.6247C78.7618 20.6247 77.9434 19.7311 77.9434 18.2497ZM81.3262 18.2497C81.3262 17.2595 80.8809 16.6804 80.1006 16.6804C79.3154 16.6804 78.875 17.2595 78.875 18.2497C78.875 19.2487 79.3154 19.8239 80.1006 19.8239C80.8809 19.8239 81.3262 19.2448 81.3262 18.2497Z" fill="black" style="fill:black;fill:black;fill-opacity:1;"/>
<path d="M83.459 15.9675H84.3281V16.6931H84.3955C84.6172 16.1853 85.0703 15.8796 85.7588 15.8796C86.7783 15.8796 87.3408 16.4919 87.3408 17.5788V20.5368H86.4385V17.8053C86.4385 17.0709 86.1201 16.7057 85.4522 16.7057C84.7852 16.7057 84.3614 17.151 84.3614 17.8639V20.5368H83.4591L83.459 15.9675Z" fill="black" style="fill:black;fill:black;fill-opacity:1;"/>
<path d="M57.1934 33.4032H52.46L51.3233 36.7596H49.3184L53.8018 24.3416H55.8848L60.3682 36.7596H58.3291L57.1934 33.4032ZM52.9502 31.8544H56.7022L54.8526 26.4071H54.8008L52.9502 31.8544Z" fill="black" style="fill:black;fill:black;fill-opacity:1;"/>
<path d="M70.0498 32.2332C70.0498 35.0467 68.5439 36.8543 66.2715 36.8543C64.9815 36.8543 63.957 36.2772 63.4229 35.2703H63.3799V39.7547H61.5215V27.7058H63.3203V29.2117H63.3545C63.8711 28.24 64.9727 27.6111 66.2373 27.6111C68.5352 27.6111 70.0498 29.4275 70.0498 32.2332ZM68.1397 32.2332C68.1397 30.4002 67.1924 29.1951 65.7471 29.1951C64.3272 29.1951 63.3721 30.4256 63.3721 32.2332C63.3721 34.0574 64.3272 35.2791 65.7471 35.2791C67.1924 35.2791 68.1397 34.0828 68.1397 32.2332Z" fill="black" style="fill:black;fill:black;fill-opacity:1;"/>
<path d="M80.0166 32.2332C80.0166 35.0467 78.5107 36.8543 76.2383 36.8543C74.9483 36.8543 73.9238 36.2772 73.3897 35.2703H73.3467V39.7547H71.4883V27.7058H73.2871V29.2117H73.3213C73.8379 28.24 74.9395 27.6111 76.2041 27.6111C78.5019 27.6111 80.0166 29.4275 80.0166 32.2332ZM78.1064 32.2332C78.1064 30.4002 77.1591 29.1951 75.7138 29.1951C74.2939 29.1951 73.3388 30.4256 73.3388 32.2332C73.3388 34.0574 74.2939 35.2791 75.7138 35.2791C77.1591 35.2791 78.1064 34.0828 78.1064 32.2332Z" fill="black" style="fill:black;fill:black;fill-opacity:1;"/>
<path d="M81.5195 24.3416H83.3789V36.7596H81.5195V24.3416Z" fill="black" style="fill:black;fill:black;fill-opacity:1;"/>
<path d="M93.0557 34.1004C92.8057 35.744 91.2051 36.8719 89.1573 36.8719C86.5235 36.8719 84.8887 35.1073 84.8887 32.2762C84.8887 29.4364 86.5323 27.5946 89.0791 27.5946C91.584 27.5946 93.1592 29.3153 93.1592 32.0604V32.6971H86.7647V32.8094C86.7647 34.3582 87.7374 35.3739 89.2002 35.3739C90.2324 35.3739 91.042 34.8837 91.291 34.1005L93.0557 34.1004ZM86.7735 31.3982H91.2999C91.2569 30.0125 90.3702 29.1003 89.0792 29.1003C87.7969 29.1004 86.8682 30.0301 86.7735 31.3982Z" fill="black" style="fill:black;fill:black;fill-opacity:1;"/>
<path d="M103.059 24.3416C105.468 24.3416 107.146 26.0027 107.146 28.4207C107.146 30.8475 105.434 32.5164 102.998 32.5164H100.33V36.7596H98.4023V24.3416H103.059ZM100.33 30.8992H102.542C104.22 30.8992 105.175 29.9949 105.175 28.4295C105.175 26.8631 104.22 25.9676 102.551 25.9676H100.33V30.8992Z" fill="black" style="fill:black;fill:black;fill-opacity:1;"/>
<path d="M107.824 32.2333C107.824 29.3847 109.502 27.5946 112.118 27.5946C114.743 27.5946 116.413 29.3846 116.413 32.2333C116.413 35.0897 114.752 36.872 112.118 36.872C109.485 36.8719 107.824 35.0897 107.824 32.2333ZM114.52 32.2333C114.52 30.2792 113.624 29.1259 112.118 29.1259C110.612 29.1259 109.717 30.288 109.717 32.2333C109.717 34.1952 110.612 35.3397 112.118 35.3397C113.624 35.3397 114.52 34.1952 114.52 32.2333Z" fill="black" style="fill:black;fill:black;fill-opacity:1;"/>
<path d="M117.717 32.2332C117.717 29.4363 119.257 27.6111 121.503 27.6111C122.803 27.6111 123.827 28.2136 124.343 29.2117H124.378V24.3416H126.245V36.7596H124.437V35.2196H124.403C123.87 36.2518 122.837 36.8544 121.52 36.8544C119.257 36.8543 117.717 35.0301 117.717 32.2332ZM119.618 32.2332C119.618 34.0916 120.565 35.2791 122.011 35.2791C123.439 35.2791 124.395 34.074 124.395 32.2332C124.395 30.408 123.439 29.1951 122.011 29.1951C120.565 29.1951 119.618 30.3914 119.618 32.2332Z" fill="black" style="fill:black;fill:black;fill-opacity:1;"/>
<path d="M134.154 30.8211C133.991 29.866 133.242 29.1522 132.021 29.1522C130.592 29.1522 129.645 30.3485 129.645 32.2333C129.645 34.161 130.601 35.3222 132.037 35.3222C133.19 35.3222 133.948 34.746 134.154 33.6962H135.944C135.738 35.5976 134.215 36.872 132.021 36.872C129.439 36.872 127.752 35.1074 127.752 32.2333C127.752 29.4188 129.438 27.5946 132.003 27.5946C134.326 27.5946 135.772 29.0575 135.928 30.8212L134.154 30.8211Z" fill="black" style="fill:black;fill:black;fill-opacity:1;"/>
<path d="M137.082 34.1864C137.082 32.6034 138.295 31.6473 140.446 31.5184L142.925 31.3807V30.6922C142.925 29.6854 142.263 29.117 141.136 29.117C140.103 29.117 139.38 29.6082 139.233 30.3914H137.495C137.547 28.7557 139.069 27.5945 141.187 27.5945C143.347 27.5945 144.775 28.7732 144.775 30.5545V36.7596H142.994V35.2703H142.951C142.426 36.2771 141.281 36.9148 140.094 36.9148C138.321 36.9149 137.082 35.8134 137.082 34.1864ZM142.925 33.369V32.6717L140.696 32.8094C139.586 32.8787 138.958 33.3602 138.958 34.1346C138.958 34.9266 139.612 35.4432 140.61 35.4432C141.91 35.4432 142.925 34.5477 142.925 33.369Z" fill="black" style="fill:black;fill:black;fill-opacity:1;"/>
<path d="M149.965 27.6033C151.971 27.6033 153.407 28.7127 153.45 30.3133H151.703C151.626 29.5135 150.946 29.0233 149.913 29.0233C148.906 29.0233 148.235 29.4872 148.235 30.1932C148.235 30.7352 148.683 31.0965 149.621 31.3289L151.145 31.6824C152.969 32.1209 153.657 32.7918 153.657 34.1179C153.657 35.7527 152.108 36.8718 149.897 36.8718C147.762 36.8718 146.325 35.778 146.188 34.1257H148.028C148.158 34.9948 148.854 35.4597 149.982 35.4597C151.093 35.4597 151.79 35.0036 151.79 34.281C151.79 33.7214 151.445 33.4206 150.499 33.1794L148.881 32.7839C147.245 32.3874 146.419 31.5525 146.419 30.2966C146.419 28.6961 147.856 27.6033 149.965 27.6033Z" fill="black" style="fill:black;fill:black;fill-opacity:1;"/>
<path d="M157.695 25.5633V27.7059H159.417V29.1776H157.695V34.1688C157.695 34.9442 158.04 35.3055 158.797 35.3055C158.986 35.3055 159.288 35.2791 159.408 35.2625V36.7254C159.202 36.7772 158.789 36.8113 158.376 36.8113C156.543 36.8113 155.828 36.1228 155.828 34.367V29.1775H154.512V27.7058H155.828V25.5632L157.695 25.5633Z" fill="black" style="fill:black;fill:black;fill-opacity:1;"/>
<path d="M164.414 27.6033C166.42 27.6033 167.856 28.7127 167.899 30.3133H166.152C166.075 29.5135 165.396 29.0233 164.362 29.0233C163.356 29.0233 162.685 29.4872 162.685 30.1932C162.685 30.7352 163.132 31.0965 164.07 31.3289L165.594 31.6824C167.418 32.1209 168.106 32.7918 168.106 34.1179C168.106 35.7527 166.558 36.8718 164.346 36.8718C162.211 36.8718 160.774 35.778 160.637 34.1257H162.478C162.607 34.9948 163.304 35.4597 164.432 35.4597C165.542 35.4597 166.239 35.0036 166.239 34.281C166.239 33.7214 165.895 33.4206 164.948 33.1794L163.33 32.7839C161.694 32.3874 160.868 31.5525 160.868 30.2966C160.868 28.6961 162.306 27.6033 164.414 27.6033Z" fill="black" style="fill:black;fill:black;fill-opacity:1;"/>
<path d="M43.6653 34.8098C43.4207 35.4311 42.8563 36.3059 42.0559 36.9222C41.5938 37.2781 41.0421 37.6183 40.2843 37.8428C39.4765 38.0822 38.4815 38.1631 37.2431 38.1631H25.9198C24.6815 38.1631 23.6865 38.0822 22.8786 37.8428C22.1208 37.6183 21.5692 37.2781 21.107 36.9222C20.3067 36.3059 19.7422 35.4312 19.4976 34.8098C19.005 33.558 19 32.1376 19 31.2432V19.9198C19 19.0254 19.005 17.605 19.4977 16.3532C19.7423 15.7319 20.3067 14.8571 21.1071 14.2409C21.5692 13.885 22.1209 13.5448 22.8786 13.3203C23.6865 13.0809 24.6815 13 25.9198 13H37.2432C38.4815 13 39.4765 13.0809 40.2844 13.3203C41.0422 13.5448 41.5938 13.8851 42.056 14.2409C42.8563 14.8572 43.4208 15.7319 43.6654 16.3532C44.158 17.605 44.163 19.0254 44.163 19.9198V31.2431C44.163 32.1376 44.158 33.558 43.6653 34.8098ZM33.4064 27.4632C33.0288 27.0649 32.3656 26.8095 31.5827 26.8095C30.7997 26.8095 30.1365 27.0649 29.7589 27.4632C29.5619 27.6711 29.4577 27.8843 29.4249 28.1879C29.3613 28.7758 29.397 29.282 29.4659 30.0913C29.5315 30.8625 29.6561 31.8909 29.8187 32.9383C29.9344 33.6837 30.0285 34.086 30.114 34.3741C30.2528 34.841 30.7715 35.2493 31.5827 35.2493C32.3938 35.2493 32.9125 34.8409 33.0513 34.3741C33.1369 34.086 33.2309 33.6837 33.3466 32.9383C33.5092 31.8909 33.6338 30.8625 33.6994 30.0913C33.7683 29.2819 33.804 28.7757 33.7404 28.1879C33.7076 27.8843 33.6034 27.6711 33.4064 27.4632ZM29.5253 23.9159C29.5253 25.0533 30.4473 25.9753 31.5846 25.9753C32.722 25.9753 33.644 25.0533 33.644 23.9159C33.644 22.7786 32.722 21.8566 31.5846 21.8566C30.4473 21.8566 29.5253 22.7786 29.5253 23.9159ZM31.5591 15.7889C26.7428 15.8026 22.7963 19.7099 22.7367 24.5259C22.6883 28.4272 25.1787 31.7644 28.6562 32.9876C28.7406 33.0173 28.8263 32.9472 28.813 32.8587C28.7674 32.5558 28.7244 32.2514 28.6849 31.9521C28.6709 31.8463 28.6035 31.7551 28.5058 31.7124C25.7572 30.5116 23.8379 27.755 23.8687 24.5619C23.9091 20.3715 27.3309 16.9553 31.5213 16.9214C35.8052 16.8868 39.3013 20.3616 39.3013 24.6376C39.3013 27.7987 37.3904 30.5215 34.6632 31.7127C34.5655 31.7554 34.4985 31.8469 34.4846 31.9526C34.4451 32.2518 34.4021 32.5561 34.3566 32.8587C34.3432 32.9472 34.4289 33.0173 34.5133 32.9877C37.9576 31.7762 40.4335 28.4909 40.4335 24.6377C40.4333 19.7498 36.45 15.775 31.5591 15.7889ZM31.3992 19.8484C34.1295 19.7427 36.3843 21.9331 36.3843 24.6403C36.3843 26.0171 35.801 27.2601 34.8687 28.1355C34.7896 28.2097 34.7471 28.3151 34.7532 28.4234C34.7718 28.7527 34.765 29.0727 34.7431 29.4341C34.7372 29.5304 34.8452 29.5919 34.9249 29.5376C36.4883 28.4692 37.5166 26.6727 37.5166 24.6403C37.5166 21.2939 34.7292 18.5862 31.3543 18.717C28.2179 18.8386 25.7016 21.4245 25.6614 24.5631C25.635 26.6273 26.6696 28.456 28.2531 29.5378C28.3326 29.5921 28.4403 29.5305 28.4344 29.4343C28.4124 29.0727 28.4057 28.7527 28.4242 28.4234C28.4303 28.3154 28.388 28.21 28.309 28.1358C27.3476 27.2332 26.7572 25.9397 26.7948 24.5117C26.861 21.9986 28.8871 19.9457 31.3992 19.8484Z" fill="black" style="fill:black;fill:black;fill-opacity:1;"/>
</g>
<defs>
<clipPath id="clip0_248_3082">
<rect width="149.105" height="26.7547" fill="white" style="fill:white;fill:white;fill-opacity:1;" transform="translate(19 13)"/>
</clipPath>
</defs>
</svg>
