<svg width="26" height="26" viewBox="0 0 26 26" fill="none" xmlns="http://www.w3.org/2000/svg">
<path d="M25.2579 21.8098C25.0133 22.4311 24.4489 23.3059 23.6485 23.9222C23.1864 24.2781 22.6347 24.6183 21.8769 24.8428C21.0691 25.0822 20.0741 25.1631 18.8357 25.1631H7.51239C6.27409 25.1631 5.27909 25.0822 4.47119 24.8428C3.71339 24.6183 3.16179 24.2781 2.69959 23.9222C1.89929 23.3059 1.33479 22.4312 1.09019 21.8098C0.59759 20.558 0.59259 19.1376 0.59259 18.2432V6.9198C0.59259 6.0254 0.59759 4.605 1.09029 3.3532C1.33489 2.7319 1.89929 1.8571 2.69969 1.2409C3.16179 0.885 3.71349 0.5448 4.47119 0.3203C5.27909 0.0809 6.27409 0 7.51239 0H18.8358C20.0741 0 21.0691 0.0809 21.877 0.3203C22.6348 0.5448 23.1864 0.8851 23.6486 1.2409C24.4489 1.8572 25.0134 2.7319 25.258 3.3532C25.7506 4.605 25.7556 6.0254 25.7556 6.9198V18.2431C25.7556 19.1376 25.7506 20.558 25.2579 21.8098ZM14.999 14.4632C14.6214 14.0649 13.9582 13.8095 13.1753 13.8095C12.3923 13.8095 11.7291 14.0649 11.3515 14.4632C11.1545 14.6711 11.0503 14.8843 11.0175 15.1879C10.9539 15.7758 10.9896 16.282 11.0585 17.0913C11.1241 17.8625 11.2487 18.8909 11.4113 19.9383C11.527 20.6837 11.6211 21.086 11.7066 21.3741C11.8454 21.841 12.3641 22.2493 13.1753 22.2493C13.9864 22.2493 14.5051 21.8409 14.6439 21.3741C14.7295 21.086 14.8235 20.6837 14.9392 19.9383C15.1018 18.8909 15.2264 17.8625 15.292 17.0913C15.3609 16.2819 15.3966 15.7757 15.333 15.1879C15.3002 14.8843 15.196 14.6711 14.999 14.4632ZM11.1179 10.9159C11.1179 12.0533 12.0399 12.9753 13.1772 12.9753C14.3146 12.9753 15.2366 12.0533 15.2366 10.9159C15.2366 9.7786 14.3146 8.8566 13.1772 8.8566C12.0399 8.8566 11.1179 9.7786 11.1179 10.9159ZM13.1517 2.7889C8.33539 2.8026 4.38889 6.7099 4.32929 11.5259C4.28089 15.4272 6.77129 18.7644 10.2488 19.9876C10.3332 20.0173 10.4189 19.9472 10.4056 19.8587C10.36 19.5558 10.317 19.2514 10.2775 18.9521C10.2635 18.8463 10.1961 18.7551 10.0984 18.7124C7.34979 17.5116 5.43049 14.755 5.46129 11.5619C5.50169 7.3715 8.92349 3.9553 13.1139 3.9214C17.3978 3.8868 20.8939 7.3616 20.8939 11.6376C20.8939 14.7987 18.983 17.5215 16.2558 18.7127C16.1581 18.7554 16.0911 18.8469 16.0772 18.9526C16.0377 19.2518 15.9947 19.5561 15.9492 19.8587C15.9358 19.9472 16.0215 20.0173 16.1059 19.9877C19.5502 18.7762 22.0261 15.4909 22.0261 11.6377C22.0259 6.7498 18.0426 2.775 13.1517 2.7889ZM12.9918 6.8484C15.7221 6.7427 17.9769 8.9331 17.9769 11.6403C17.9769 13.0171 17.3936 14.2601 16.4613 15.1355C16.3822 15.2097 16.3397 15.3151 16.3458 15.4234C16.3644 15.7527 16.3576 16.0727 16.3357 16.4341C16.3298 16.5304 16.4378 16.5919 16.5175 16.5376C18.0809 15.4692 19.1092 13.6727 19.1092 11.6403C19.1092 8.2939 16.3218 5.5862 12.9469 5.717C9.81049 5.8386 7.29419 8.4245 7.25399 11.5631C7.22759 13.6273 8.26219 15.456 9.84569 16.5378C9.92519 16.5921 10.0329 16.5305 10.027 16.4343C10.005 16.0727 9.99829 15.7527 10.0168 15.4234C10.0229 15.3154 9.98059 15.21 9.90159 15.1358C8.94019 14.2332 8.34979 12.9397 8.38739 11.5117C8.45359 8.9986 10.4797 6.9457 12.9918 6.8484Z" fill="black"/>
</svg>
