<svg width="36" height="37" viewBox="0 0 36 37" fill="none" xmlns="http://www.w3.org/2000/svg">
<rect x="36" y="0.753174" width="36" height="36" rx="18" transform="rotate(90 36 0.753174)" fill="#6B6249" style="fill:#6B6249;fill:color(display-p3 0.4196 0.3843 0.2863);fill-opacity:1;"/>
<path d="M16.4123 10.2415C16.395 10.2241 15.8666 10.0917 15.2381 9.94724C14.6095 9.80278 14.0885 9.70667 14.0801 9.7335C14.0718 9.76041 14.0067 10.1967 13.9356 10.703C13.7928 11.7198 13.4469 12.907 13.0773 13.6495C11.9252 15.9635 9.85827 17.4957 7.35132 17.894L6.71293 17.9954L6.71293 19.0176L6.71293 20.0399L7.29154 20.137C11.0824 20.773 13.5538 23.6074 14.0162 27.8492C14.0463 28.1261 14.0824 28.3527 14.0963 28.3527C14.2241 28.3527 16.3426 27.8422 16.3827 27.8017C16.4116 27.7725 16.3901 27.5128 16.3347 27.2248C15.7217 24.0354 13.9664 21.4402 11.6887 20.3551L11.1423 20.0948L22.3778 20.0744L29.4824 20.0614L29.4824 17.9926L22.3595 17.9797L11.1505 17.9592L11.8403 17.6097C13.6298 16.7031 15.0466 14.9247 15.8809 12.5377C16.1186 11.8576 16.4774 10.3072 16.4123 10.2415Z" fill="#FBF0D1" style="fill:#FBF0D1;fill:color(display-p3 0.9843 0.9412 0.8196);fill-opacity:1;"/>
</svg>
