<svg width="36" height="36" viewBox="0 0 36 36" fill="none" xmlns="http://www.w3.org/2000/svg">
<rect y="36" width="36" height="36" rx="18" transform="rotate(-90 0 36)" fill="#DF8010" style="fill:#DF8010;fill:color(display-p3 0.8750 0.5010 0.0620);fill-opacity:1;"/>
<path d="M19.5877 26.5117C19.605 26.529 20.1334 26.6615 20.7619 26.8059C21.3905 26.9504 21.9115 27.0465 21.9199 27.0197C21.9282 26.9928 21.9933 26.5565 22.0644 26.0502C22.2072 25.0333 22.5531 23.8461 22.9227 23.1036C24.0748 20.7896 26.1417 19.2575 28.6487 18.8592L29.2871 18.7578L29.2871 17.7356L29.2871 16.7133L28.7085 16.6162C24.9176 15.9802 22.4462 13.1458 21.9838 8.90402C21.9537 8.62703 21.9176 8.40048 21.9037 8.40048C21.7759 8.40048 19.6574 8.91102 19.6173 8.95147C19.5884 8.98071 19.6099 9.24037 19.6653 9.5284C20.2783 12.7177 22.0336 15.313 24.3113 16.3981L24.8577 16.6584L13.6222 16.6788L6.51758 16.6917L6.51758 18.7605L13.6405 18.7735L24.8495 18.794L24.1597 19.1435C22.3702 20.0501 20.9534 21.8285 20.1191 24.2155C19.8814 24.8956 19.5226 26.446 19.5877 26.5117Z" fill="#FBF0D1" style="fill:#FBF0D1;fill:color(display-p3 0.9843 0.9412 0.8196);fill-opacity:1;"/>
</svg>
