<svg width="43" height="52" viewBox="0 0 43 52" fill="none" xmlns="http://www.w3.org/2000/svg">
<path d="M1.87609 29.5608C1.83717 29.5995 1.53956 30.7869 1.21497 32.1991C0.890388 33.6115 0.674421 34.7823 0.734703 34.8011C0.795167 34.8198 1.77544 34.9659 2.9132 35.1257C5.19796 35.4467 7.8656 36.2239 9.53396 37.0544C14.7335 39.643 18.1763 44.2875 19.0711 49.9206L19.299 51.355L21.5959 51.355L23.893 51.355L24.1111 50.0549C25.5401 41.5369 31.9091 35.9836 41.4402 34.9448C42.0626 34.877 42.5717 34.7959 42.5717 34.7647C42.5717 34.4774 41.4245 29.7173 41.3336 29.6273C41.2679 29.5622 40.6845 29.6106 40.0373 29.7351C32.8709 31.1125 27.0394 35.0565 24.6012 40.1745L24.0162 41.4022L23.9704 16.1563L23.9414 0.192384L19.2928 0.192384L19.2637 16.1974L19.2177 41.3838L18.4324 39.8338C16.3953 35.8129 12.3993 32.6295 7.03558 30.7548C5.50752 30.2205 2.02381 29.4145 1.87609 29.5608Z" fill="#FBF0D1" style="fill:#FBF0D1;fill:color(display-p3 0.9843 0.9412 0.8196);fill-opacity:1;"/>
</svg>
