<svg width="44" height="44" viewBox="0 0 44 44" fill="none" xmlns="http://www.w3.org/2000/svg">
<path d="M22.2648 35.3937C29.9842 35.3937 36.3559 29.0221 36.3559 21.3026C36.3559 14.5498 31.4682 8.8317 25.083 7.51108V5.50974C25.083 4.47504 24.307 4.17552 23.4629 4.78817L18.8612 8.04205C18.1668 8.54579 18.1668 9.30821 18.8612 9.79833L23.4493 13.0658C24.2934 13.6785 25.083 13.4062 25.083 12.3443V10.3838C29.957 11.6227 33.524 16.0202 33.524 21.3026C33.524 27.5517 28.5139 32.5755 22.2648 32.5755C16.0157 32.5755 10.9919 27.5517 11.0055 21.3026C11.0192 17.6675 12.721 14.4954 15.3894 12.4396C16.0293 11.8814 16.2335 11.0781 15.7434 10.411C15.2941 9.7711 14.4092 9.66219 13.674 10.2612C10.3657 12.7391 8.18733 16.9051 8.18733 21.3026C8.18733 29.0221 14.5589 35.3937 22.2648 35.3937ZM18.371 27.0071C18.9837 27.0071 19.3649 26.5987 19.3649 25.9452V17.5042C19.3649 16.6873 18.9292 16.2653 18.2077 16.2653C17.772 16.2653 17.4452 16.4014 16.9143 16.7962L15.158 18.0488C14.7904 18.3483 14.627 18.6206 14.627 18.9882C14.627 19.4783 15.0218 19.8867 15.4984 19.8867C15.8115 19.8867 15.9885 19.805 16.2472 19.56L17.3908 18.6342V25.9452C17.3908 26.5851 17.772 27.0071 18.371 27.0071ZM25.2055 27.1433C27.4928 27.1433 28.9904 25.6729 28.9904 23.4129C28.9904 21.3843 27.6289 19.9956 25.7637 19.9956C24.9332 19.9956 24.0619 20.3905 23.6807 21.0303L23.8985 18.1713H27.8059C28.296 18.1713 28.6636 17.7901 28.6636 17.2727C28.6636 16.7554 28.296 16.415 27.8059 16.415H23.4765C22.7277 16.415 22.3056 16.8643 22.2512 17.6539L21.9789 21.5341C21.9108 22.2693 22.3192 22.6369 22.9591 22.6369C23.4629 22.6369 23.6535 22.5416 24.0211 22.2557C24.4976 21.8336 24.8924 21.643 25.4234 21.643C26.4308 21.643 27.0843 22.3782 27.0843 23.4537C27.0843 24.5701 26.3083 25.387 25.2736 25.387C24.4976 25.387 23.8713 24.9513 23.5173 24.2978C23.3131 23.9711 23.0681 23.7805 22.6868 23.7805C22.1831 23.7805 21.8291 24.1345 21.8291 24.6518C21.8291 24.856 21.87 25.0466 21.9517 25.2509C22.3192 26.1903 23.5309 27.1433 25.2055 27.1433Z" fill="black"/>
</svg>
