<svg width="36" height="36" viewBox="0 0 36 36" fill="none" xmlns="http://www.w3.org/2000/svg">
<path d="M21.5246 2.99999H14.4746C12.9146 2.99999 11.6396 4.25999 11.6396 5.81999V7.22999C11.6396 8.78999 12.8996 10.05 14.4596 10.05H21.5246C23.0846 10.05 24.3446 8.78999 24.3446 7.22999V5.81999C24.3596 4.25999 23.0846 2.99999 21.5246 2.99999Z" fill="black" style="fill:black;fill:black;fill-opacity:1;"/>
<path d="M25.8596 7.23C25.8596 9.615 23.9096 11.565 21.5246 11.565H14.4746C12.0896 11.565 10.1396 9.615 10.1396 7.23C10.1396 6.39 9.23957 5.865 8.48957 6.255C6.37457 7.38 4.93457 9.615 4.93457 12.18V26.295C4.93457 29.985 7.94957 33 11.6396 33H24.3596C28.0496 33 31.0646 29.985 31.0646 26.295V12.18C31.0646 9.615 29.6246 7.38 27.5096 6.255C26.7596 5.865 25.8596 6.39 25.8596 7.23ZM18.5696 25.425H11.9996C11.3846 25.425 10.8746 24.915 10.8746 24.3C10.8746 23.685 11.3846 23.175 11.9996 23.175H18.5696C19.1846 23.175 19.6946 23.685 19.6946 24.3C19.6946 24.915 19.1846 25.425 18.5696 25.425ZM22.4996 19.425H11.9996C11.3846 19.425 10.8746 18.915 10.8746 18.3C10.8746 17.685 11.3846 17.175 11.9996 17.175H22.4996C23.1146 17.175 23.6246 17.685 23.6246 18.3C23.6246 18.915 23.1146 19.425 22.4996 19.425Z" fill="black" style="fill:black;fill:black;fill-opacity:1;"/>
</svg>
