<svg width="36" height="36" viewBox="0 0 36 36" fill="none" xmlns="http://www.w3.org/2000/svg">
<path d="M28.125 20.85H25.2038C25.0057 20.85 24.8121 20.9088 24.6476 21.019L21.135 23.37C20.595 23.73 19.965 23.895 19.35 23.895C18.825 23.895 18.3 23.775 17.82 23.505C16.9888 23.0656 16.4113 22.2032 16.2068 21.275C16.1116 20.8428 15.8311 20.4552 15.4217 20.2872C14.5961 19.9483 13.8561 19.4661 13.245 18.855C11.955 17.565 11.25 15.75 11.25 13.725V7.875V7C11.25 6.44772 10.8023 6 10.25 6H9.75C5.7 6 3 8.025 3 12.75V20.85C3 25.575 5.7 27.6 9.75 27.6H15.375V31.875H11.1C10.485 31.875 9.975 32.385 9.975 33C9.975 33.615 10.485 34.125 11.1 34.125H21.9C22.515 34.125 23.025 33.615 23.025 33C23.025 32.385 22.515 31.875 21.9 31.875H17.625V27.6H23.25C27.0017 27.6 29.5949 25.8623 29.9566 21.8504C30.0062 21.3003 29.5523 20.85 29 20.85H28.125Z" fill="black" style="fill:black;fill:black;fill-opacity:1;"/>
<path d="M28.125 3H18.375C16.14 3 14.46 4.14 13.8 6C13.605 6.57 13.5 7.2 13.5 7.875V13.725C13.5 15.18 13.98 16.41 14.835 17.265C15.69 18.12 16.92 18.6 18.375 18.6V20.685C18.375 21.45 19.245 21.915 19.89 21.495L24.225 18.6H28.125C28.8 18.6 29.43 18.495 30 18.3C31.86 17.64 33 15.96 33 13.725V7.875C33 4.95 31.05 3 28.125 3ZM18.93 12C18.3 12 17.805 11.49 17.805 10.875C17.805 10.26 18.3 9.75 18.93 9.75C19.56 9.75 20.055 10.26 20.055 10.875C20.055 11.49 19.56 12 18.93 12ZM23.16 12C22.53 12 22.035 11.49 22.035 10.875C22.035 10.26 22.545 9.75 23.16 9.75C23.775 9.75 24.285 10.26 24.285 10.875C24.285 11.49 23.775 12 23.16 12ZM27.375 12C26.745 12 26.25 11.49 26.25 10.875C26.25 10.26 26.76 9.75 27.375 9.75C27.99 9.75 28.5 10.26 28.5 10.875C28.5 11.49 27.99 12 27.375 12Z" fill="black" style="fill:black;fill:black;fill-opacity:1;"/>
<path d="M33 7.875V13.725C33 15.96 31.86 17.64 30 18.3C29.43 18.495 28.8 18.6 28.125 18.6H24.225L19.89 21.495C19.245 21.915 18.375 21.45 18.375 20.685V18.6C16.92 18.6 15.69 18.12 14.835 17.265C13.98 16.41 13.5 15.18 13.5 13.725V7.875C13.5 7.2 13.605 6.57 13.8 6C14.46 4.14 16.14 3 18.375 3H28.125C31.05 3 33 4.95 33 7.875Z" fill="black" style="fill:black;fill:black;fill-opacity:1;"/>
</svg>
