<svg width="58" height="64" viewBox="0 0 58 64" fill="none" xmlns="http://www.w3.org/2000/svg">
<path d="M55.9575 23.9339C53.9277 22.3094 50.9483 23.181 48.608 23.6541C45.5318 24.2757 42.5172 25.1999 40.0831 27.1006C36.7511 29.7024 34.3531 33.1579 32.6361 36.8682C33.0381 34.3569 33.5099 31.8552 34.065 29.3736C35.0604 24.9264 36.1983 20.4846 36.5554 15.9427C36.7992 12.8519 36.7219 -1.76973 29.8817 0.542664C22.1264 3.16379 22.5277 13.9418 22.806 19.9038C23.0273 24.6439 25.6661 32.5452 27.1791 37.1479C26.6518 36.268 24.3249 32.289 23.8449 31.3918C22.1526 28.2326 20.2407 24.7882 17.361 22.3895C14.1401 19.7069 7.4379 16.3979 3.4151 19.5487C-2.20467 23.9504 2.84352 31.7696 7.25937 34.9226C10.388 37.1562 14.071 38.4885 17.5725 40.1241C20.1416 41.3238 22.9335 42.7977 25.7786 43.8323C24.2312 44.3876 22.71 45.0147 21.2038 45.6108C18.5109 46.6758 15.9066 47.9923 13.9533 50.0498C11.6692 52.4561 7.52266 58.9091 10.2335 62.1525C13.0599 65.5348 19.4725 60.6482 21.9149 59.0832C24.1847 57.6286 26.1035 55.8577 27.5947 53.7104C28.5585 52.3228 29.4204 50.8544 30.1405 49.3467C30.541 48.5082 30.8021 47.6013 31.1224 46.7255C31.5747 47.4625 31.9955 48.2278 32.5776 48.8908C33.4544 49.8882 34.4461 50.7978 35.4985 51.6376C37.718 53.4085 40.1866 54.8942 42.698 56.2859C44.7772 57.438 47.1656 58.9029 49.7129 58.2764C51.5792 57.8171 52.9496 56.6071 53.2346 54.8244C54.5781 46.4182 40.4387 44.4401 33.4305 43.4911C39.6766 40.8424 47.0313 40.1869 52.6121 36.3274C56.1818 33.8575 60.4536 27.5323 55.9575 23.9339Z" fill="#E2BF5C" style="fill:#E2BF5C;fill:color(display-p3 0.8863 0.7490 0.3608);fill-opacity:1;"/>
<path d="M50.8443 29.663C50.7101 29.3177 50.2975 29.1388 49.9262 29.2611C49.2916 29.469 35.6218 34.0537 31.3664 43.6879C29.7515 30.0042 30.1228 13.8962 30.1288 13.6676C30.1378 13.3016 29.8235 12.999 29.4267 12.9908C29.0284 12.9901 28.7006 13.2719 28.6916 13.6365C28.6683 14.5544 28.3218 29.6451 29.8235 42.9931C23.4753 35.2147 10.9636 27.3113 10.3703 26.939C10.0418 26.7339 9.59546 26.8105 9.37193 27.113C9.1484 27.4156 9.23315 27.8272 9.56095 28.0324C9.71697 28.1304 24.797 37.6514 30.173 45.8076C30.173 45.809 30.1738 45.8111 30.1738 45.8125C21.9211 47.4556 14.6969 57.0809 14.3811 57.507C14.1576 57.8088 14.2423 58.2205 14.5701 58.4263C14.6939 58.5037 14.8349 58.5416 14.9744 58.5416C15.204 58.5416 15.429 58.4408 15.5685 58.2529C15.642 58.1542 22.714 48.7354 30.362 47.1303C31.0476 51.715 31.9995 55.8625 33.3182 58.84C33.4322 59.0963 33.7 59.2517 33.9835 59.2517C34.0743 59.2517 34.1658 59.2365 34.2551 59.2026C34.6219 59.0652 34.7989 58.6784 34.6489 58.34C33.3872 55.4916 32.4713 51.4684 31.806 46.9935C41.5296 49.051 47.3121 53.825 47.3706 53.8741C47.5079 53.9901 47.6819 54.0481 47.8559 54.0481C48.0502 54.0481 48.2437 53.9756 48.3855 53.8333C48.6533 53.5639 48.6338 53.1461 48.3412 52.8988C48.0915 52.6882 42.2339 47.8389 32.1308 45.7047C35.2647 35.5904 50.2518 30.5609 50.4078 30.5098C50.7821 30.3855 50.9771 30.007 50.8443 29.663Z" fill="black" style="fill:black;fill:black;fill-opacity:1;"/>
</svg>
