<svg width="37" height="33" viewBox="0 0 37 33" fill="none" xmlns="http://www.w3.org/2000/svg">
<path d="M23.9603 10.9195L23.9579 10.9231C21.2454 15.0071 19.8816 19.2935 19.8816 23.7761C19.8816 26.3559 20.4039 28.3885 21.5017 29.8211L21.5016 29.8212L21.5081 29.8291C22.6227 31.2028 24.249 31.8684 26.3235 31.8684C28.1199 31.8684 29.7735 31.3196 31.275 30.2311L31.2751 30.2311L31.2782 30.2287C32.8308 29.0776 34.0675 27.6561 34.9854 25.9669L34.9855 25.967L34.9886 25.9609C35.907 24.194 36.3684 22.3449 36.3684 20.4179C36.3684 18.715 35.9057 17.3451 34.9331 16.3623C34.0234 15.298 32.7113 14.7883 31.0588 14.7883C29.8928 14.7883 28.7363 15.1055 27.5933 15.7261C26.806 16.1262 26.0597 16.6304 25.3542 17.2372C25.7141 14.7629 26.78 12.3935 28.5669 10.1259C30.6655 7.54994 33.2049 5.37724 36.1879 3.60787L36.4326 3.46273L36.354 3.1893L35.8393 1.39826L35.7165 0.970837L35.3194 1.17109C30.5334 3.58473 26.7435 6.83358 23.9603 10.9195ZM16.6923 1.39826L16.5694 0.970837L16.1724 1.17109C11.3863 3.58473 7.59648 6.83358 4.8132 10.9195C2.03112 15.0036 0.631631 19.2913 0.631631 23.7761C0.631631 26.3559 1.15385 28.3885 2.25173 29.8211L2.25162 29.8212L2.25807 29.8291C3.37268 31.2028 4.99904 31.8684 7.07353 31.8684C8.9353 31.8684 10.6238 31.3216 12.128 30.2311L12.1281 30.2312L12.1377 30.2238C13.62 29.0724 14.8196 27.6523 15.7354 25.9669L15.7355 25.967L15.7386 25.9609C16.657 24.194 17.1184 22.3449 17.1184 20.4179C17.1184 18.7196 16.6926 17.3519 15.7908 16.368C14.8779 15.2963 13.5269 14.7883 11.8088 14.7883C10.6437 14.7883 9.51976 15.1051 8.44178 15.7284C7.6561 16.1281 6.91128 16.6315 6.20715 17.2372C6.56712 14.762 7.63371 12.3918 9.42165 10.1236C11.4496 7.55076 13.9868 5.37913 17.0378 3.6097L17.2864 3.46552L17.207 3.1893L16.6923 1.39826Z" fill="#FBF0D1" stroke="#F2DEA7" style="fill:#FBF0D1;fill:color(display-p3 0.9843 0.9412 0.8196);fill-opacity:1;stroke:#F2DEA7;stroke:color(display-p3 0.9490 0.8706 0.6549);stroke-opacity:1;" stroke-width="0.736739"/>
</svg>
