<svg width="131" height="131" viewBox="0 0 131 131" fill="none" xmlns="http://www.w3.org/2000/svg">
<path d="M99.5688 83.8283H101.912V109.456H99.5688C98.9149 106.543 97.7345 103.971 96.0271 101.741C89.5248 109.007 81.2246 112.64 71.126 112.64C60.4462 112.64 51.71 109.295 44.917 102.604C38.1605 95.9141 34.7822 87.0657 34.7822 76.0591C34.7822 68.8291 36.3443 62.031 39.4683 55.6644C42.5922 49.2619 46.9515 44.5139 52.5454 41.4204C58.1397 38.327 64.2787 36.7805 70.9626 36.7805C76.4839 36.7805 81.4788 37.9135 85.9469 40.1794C90.4513 42.4095 93.8112 44.8916 96.0271 47.6253C97.5892 44.5677 98.5335 41.4025 98.8606 38.1293H101.258L101.912 65.8616H99.5688C97.9341 56.0062 94.5923 49.1538 89.5429 45.3051C84.5302 41.4565 78.8633 39.5322 72.5427 39.5322C64.8054 39.5322 58.6483 42.6435 54.071 48.866C49.5305 55.0888 47.2602 63.9913 47.2602 75.5734C47.2602 86.5441 49.7484 94.9609 54.725 100.824C59.7017 106.651 65.8951 109.565 73.3055 109.565C77.2651 109.565 81.3153 108.611 85.4564 106.705C89.5975 104.799 92.8669 101.579 95.2644 97.0471C97.6981 92.4791 99.1329 88.0727 99.5688 83.8283Z" fill="#43583E" style="fill:#43583E;fill:color(display-p3 0.9843 0.9412 0.8196);fill-opacity:1;"/>
<path d="M29.6325 56.1631C28.5488 50.76 28.8578 46.0562 29.6204 40.766C32.2393 44.9353 34.3782 50.4965 35.9642 56.3028C37.6892 62.6181 38.7501 69.1846 39.0705 74.491L40.0522 74.5556C41.3767 67.8147 43.066 61.4851 44.8192 55.7245L44.8723 55.5502L44.7976 55.3837C42.6149 50.5117 41.373 43.3591 41.0104 36.0279C40.6754 29.2568 41.093 22.3866 42.1836 17.0981C44.2015 21.01 45.4362 26.3733 46.0065 32.0102C46.6329 38.1983 46.4529 44.6568 45.6656 49.7694L46.6265 49.998C49.0862 42.659 51.5296 36.6209 53.2412 32.517L53.7947 31.1896L53.3552 31.4388C53.4276 30.8902 53.5335 30.1298 53.6761 29.2119C53.9804 27.2539 54.4513 24.5835 55.1169 21.7319C55.783 18.8781 56.6417 15.8537 57.7197 13.1831C58.6529 10.8709 59.7358 8.86159 60.973 7.45508C61.3651 9.37971 61.2731 11.7166 60.8706 14.2161C60.4091 17.0829 59.5478 20.1145 58.5973 22.8941C57.6473 25.6718 56.6117 28.1872 55.807 30.0193C55.4048 30.9349 55.0606 31.6789 54.8141 32.199C54.6722 32.4976 54.5231 32.7927 54.3819 33.0916C50.4174 44.4206 47.1274 56.2404 44.5291 68.489L45.4793 68.7608C49.3052 58.5601 55.7669 47.6061 64.7776 41.8263C62.9432 48.1684 59.1865 54.5631 55.1913 59.9971C50.9493 65.7668 46.4675 70.4144 43.8092 72.7196L43.6805 72.8311L43.6487 72.9978C42.351 79.7929 41.4345 86.8017 40.9038 93.9878L41.864 94.193C43.4399 89.9514 46.4817 84.5984 50.1582 79.6196C53.5122 75.0781 57.3676 70.8844 61.0814 68.1393C59.4281 74.2545 55.7994 80.0611 51.9291 84.8614C47.7955 89.989 43.4161 93.9315 40.9631 95.8316L40.7669 95.9834L40.7726 96.2299C40.9204 102.415 41.0169 105.898 41.0764 107.835C41.1062 108.803 41.1267 109.386 41.1399 109.727C41.1466 109.897 41.1513 110.007 41.1543 110.076C41.155 110.091 41.1558 110.104 41.1562 110.115C41.1567 110.126 41.1572 110.135 41.1575 110.142L40.7917 116.122L40.138 113.837C40.051 113.024 39.963 112.212 39.8752 111.402C38.6454 100.061 37.4425 88.9665 39.3693 78.187L39.4023 78.0031L39.3031 77.844C33.6111 68.6997 30.804 62.0037 29.6325 56.1631Z" stroke="#43583E" style="stroke:#43583E;stroke:color(display-p3 0.9843 0.9412 0.8196);stroke-opacity:1;" stroke-width="0.963235"/>
</svg>
