<svg width="131" height="131" viewBox="0 0 131 131" fill="none" xmlns="http://www.w3.org/2000/svg">
<path d="M99.5681 83.8283H101.911V109.456H99.5681C98.9142 106.543 97.7338 103.971 96.0265 101.741C89.5241 109.007 81.2239 112.64 71.1253 112.64C60.4455 112.64 51.7093 109.295 44.9163 102.604C38.1598 95.9141 34.7815 87.0657 34.7815 76.0591C34.7815 68.8291 36.3436 62.031 39.4676 55.6644C42.5915 49.2619 46.9508 44.5139 52.5447 41.4204C58.139 38.327 64.278 36.7805 70.9619 36.7805C76.4832 36.7805 81.4781 37.9135 85.9462 40.1794C90.4506 42.4095 93.8105 44.8916 96.0265 47.6253C97.5885 44.5677 98.5328 41.4025 98.8599 38.1293H101.257L101.911 65.8616H99.5681C97.9334 56.0062 94.5916 49.1538 89.5422 45.3051C84.5295 41.4565 78.8626 39.5322 72.542 39.5322C64.8047 39.5322 58.6476 42.6435 54.0703 48.866C49.5298 55.0888 47.2595 63.9913 47.2595 75.5734C47.2595 86.5441 49.7478 94.9609 54.7243 100.824C59.701 106.651 65.8944 109.565 73.3048 109.565C77.2644 109.565 81.3147 108.611 85.4557 106.705C89.5968 104.799 92.8662 101.579 95.2637 97.0471C97.6974 92.4791 99.1322 88.0727 99.5681 83.8283Z" fill="#51702E"/>
<path d="M29.6329 56.1631C28.5492 50.76 28.8582 46.0562 29.6208 40.766C32.2397 44.9353 34.3785 50.4965 35.9646 56.3028C37.6896 62.6181 38.7505 69.1846 39.0709 74.491L40.0526 74.5556C41.3771 67.8147 43.0664 61.4851 44.8196 55.7245L44.8727 55.5502L44.798 55.3837C42.6153 50.5117 41.3734 43.3591 41.0108 36.0279C40.6758 29.2568 41.0934 22.3866 42.184 17.0981C44.2019 21.01 45.4366 26.3733 46.0069 32.0102C46.6333 38.1983 46.4533 44.6568 45.666 49.7694L46.6269 49.998C49.0866 42.659 51.53 36.6209 53.2416 32.517L53.7951 31.1896L53.3556 31.4388C53.428 30.8902 53.5339 30.1298 53.6765 29.2119C53.9808 27.2539 54.4517 24.5835 55.1173 21.7319C55.7834 18.8781 56.6421 15.8537 57.7201 13.1831C58.6533 10.8709 59.7362 8.86159 60.9734 7.45508C61.3655 9.37971 61.2735 11.7166 60.871 14.2161C60.4095 17.0829 59.5482 20.1145 58.5977 22.8941C57.6477 25.6718 56.6121 28.1872 55.8074 30.0193C55.4052 30.9349 55.061 31.6789 54.8145 32.199C54.6726 32.4976 54.5235 32.7927 54.3823 33.0916C50.4178 44.4206 47.1278 56.2404 44.5295 68.489L45.4797 68.7608C49.3056 58.5601 55.7673 47.6061 64.7779 41.8263C62.9436 48.1684 59.1869 54.5631 55.1917 59.9971C50.9497 65.7668 46.4679 70.4144 43.8096 72.7196L43.6809 72.8311L43.6491 72.9978C42.3514 79.7929 41.4349 86.8017 40.9042 93.9878L41.8644 94.193C43.4403 89.9514 46.4821 84.5984 50.1586 79.6196C53.5126 75.0781 57.368 70.8844 61.0818 68.1393C59.4285 74.2545 55.7997 80.0611 51.9295 84.8614C47.7959 89.989 43.4165 93.9315 40.9635 95.8316L40.7673 95.9834L40.773 96.2299C40.9208 102.415 41.0173 105.898 41.0768 107.835C41.1066 108.803 41.1271 109.386 41.1403 109.727C41.147 109.897 41.1517 110.007 41.1547 110.076C41.1554 110.091 41.1561 110.104 41.1566 110.115C41.1571 110.126 41.1576 110.135 41.1579 110.142L40.7921 116.122L40.1384 113.837C40.0514 113.024 39.9634 112.212 39.8756 111.402C38.6458 100.061 37.4429 88.9665 39.3697 78.187L39.4027 78.0031L39.3035 77.844C33.6115 68.6997 30.8044 62.0037 29.6329 56.1631Z" stroke="#51702E" stroke-width="0.963235"/>
</svg>
