<svg width="44" height="44" viewBox="0 0 44 44" fill="none" xmlns="http://www.w3.org/2000/svg">
<path d="M21.8532 41.7084C10.9998 41.7084 2.14484 32.8717 2.14484 22C2.14484 11.1284 10.9998 2.29169 21.8532 2.29169C32.7065 2.29169 41.5615 11.1284 41.5615 22C41.5615 32.8717 32.7248 41.7084 21.8532 41.7084ZM21.8532 5.04169C12.5032 5.04169 4.89484 12.65 4.89484 22C4.89484 31.35 12.5032 38.9584 21.8532 38.9584C31.2032 38.9584 38.8115 31.35 38.8115 22C38.8115 12.65 31.2032 5.04169 21.8532 5.04169Z" fill="#F2DEA7" style="fill:#F2DEA7;fill:color(display-p3 0.9490 0.8706 0.6549);fill-opacity:1;"/>
<path d="M29.1865 23.375H14.5198C13.7682 23.375 13.1448 22.7517 13.1448 22C13.1448 21.2483 13.7682 20.625 14.5198 20.625H29.1865C29.9382 20.625 30.5615 21.2483 30.5615 22C30.5615 22.7517 29.9565 23.375 29.1865 23.375Z" fill="#F2DEA7" style="fill:#F2DEA7;fill:color(display-p3 0.9490 0.8706 0.6549);fill-opacity:1;"/>
</svg>
