<svg width="114" height="59" viewBox="0 0 114 59" fill="none" xmlns="http://www.w3.org/2000/svg">
<path d="M83.8019 57.3765C83.8555 57.4314 85.5007 57.851 87.4575 58.3086C89.4145 58.7663 91.0368 59.0708 91.0629 58.9858C91.0888 58.9005 91.2913 57.5184 91.5127 55.9143C91.9574 52.693 93.0343 48.9319 94.1851 46.5797C97.7718 39.249 104.207 34.395 112.012 33.1334L114 32.812V29.5737V26.335L112.199 26.0275C100.396 24.0127 92.7014 15.0331 91.2619 1.5952C91.168 0.717712 91.0557 3.8147e-06 91.0125 3.8147e-06C90.6144 3.8147e-06 84.0188 1.6174 83.8941 1.74553C83.8039 1.83817 83.8709 2.66079 84.0434 3.57324C85.952 13.6771 91.4167 21.8989 98.5083 25.3366L100.209 26.1612L65.2286 26.2258L0 26.2668L0 32.8208L65.2855 32.8618L100.184 32.9266L98.0362 34.0338C92.4648 36.906 88.0538 42.5399 85.4563 50.1022C84.716 52.2566 83.5991 57.1683 83.8019 57.3765Z" fill="#F2DEA7" style="fill:#F2DEA7;fill:color(display-p3 0.9490 0.8706 0.6549);fill-opacity:1;"/>
</svg>
