<svg width="56" height="46" viewBox="0 0 56 46" fill="none" xmlns="http://www.w3.org/2000/svg">
<path opacity="0.5" d="M23.8548 1.26575C23.8124 1.22297 22.5129 0.895822 20.9671 0.539025C19.4212 0.182229 18.1396 -0.0551711 18.119 0.0110939C18.0986 0.0775579 17.9386 1.15511 17.7637 2.40579C17.4124 4.91729 16.5617 7.84967 15.6527 9.6836C12.8193 15.3991 7.73576 19.1836 1.57008 20.1672L2.02972e-06 20.4177L1.80899e-06 22.9426L1.58825e-06 25.4676L1.42306 25.7074C10.7464 27.2782 16.8247 34.2793 17.9618 44.7563C18.036 45.4404 18.1247 46 18.1589 46C18.4733 46 23.6835 44.739 23.782 44.6391C23.8533 44.5668 23.8003 43.9255 23.6641 43.2141C22.1564 35.3365 17.8395 28.9263 12.2376 26.2461L10.8938 25.6031L38.5267 25.5528L56 25.5208L56 20.4109L38.4818 20.3789L10.914 20.3284L12.6105 19.4651C17.0116 17.2259 20.496 12.8333 22.548 6.93728C23.1327 5.25757 24.015 1.42813 23.8548 1.26575Z" fill="#F2DEA7" style="fill:#F2DEA7;fill:color(display-p3 0.9490 0.8706 0.6549);fill-opacity:1;"/>
</svg>
