<svg width="26" height="26" viewBox="0 0 26 26" fill="none" xmlns="http://www.w3.org/2000/svg">
<path d="M13.2556 25.0815C6.35076 25.0815 0.755585 19.4864 0.755585 12.5815C0.755585 5.67672 6.35076 0.081543 13.2556 0.081543C20.1604 0.081543 25.7556 5.67672 25.7556 12.5815C25.7556 19.4864 20.1604 25.0815 13.2556 25.0815ZM10.602 23.6416C11.274 23.1273 11.9254 22.5308 12.5288 21.8588C12.2202 21.5023 11.9254 21.132 11.6374 20.7412L10.4854 23.6142C10.5266 23.621 10.5609 23.6348 10.602 23.6416ZM13.2419 21.0017C13.6327 20.5012 13.9961 19.9595 14.339 19.3904L13.2556 16.6956L12.1653 19.4315C12.4945 19.9869 12.8579 20.5149 13.2419 21.0017ZM13.8933 21.7903C14.5172 22.4897 15.1892 23.1136 15.8886 23.6485C15.9366 23.6348 15.9846 23.6279 16.0257 23.6142L14.8189 20.5972C14.5241 21.0154 14.2155 21.4131 13.8933 21.7903ZM14.6544 23.8679C14.147 23.477 13.6601 23.0382 13.187 22.5719C12.7345 23.0382 12.2613 23.4702 11.7745 23.861C12.2613 23.9227 12.7482 23.957 13.2556 23.957C13.7287 23.957 14.195 23.9227 14.6544 23.8679ZM13.2556 1.20606C6.97473 1.20606 1.8801 6.30069 1.8801 12.5815C1.8801 17.6076 5.1371 21.8657 9.65575 23.3742L12.5768 14.6112C11.7265 14.33 11.1163 13.5278 11.1163 12.5815C11.1163 11.4022 12.0762 10.4422 13.2556 10.4422C14.435 10.4422 15.3949 11.4022 15.3949 12.5815C15.3949 13.5278 14.7847 14.33 13.9344 14.6112L16.8554 23.3742C21.3741 21.8657 24.6311 17.6076 24.6311 12.5815C24.6311 6.30069 19.5364 1.20606 13.2556 1.20606ZM19.5844 18.9104L18.789 18.115C20.2084 16.6956 21.0792 14.7414 21.0792 12.5815C21.0792 10.4216 20.2016 8.46059 18.789 7.04808L19.5844 6.25269C21.2027 7.8709 22.2037 10.1131 22.2037 12.5815C22.2106 15.0569 21.2027 17.2922 19.5844 18.9104ZM16.3412 15.6671C17.1297 14.8786 17.6165 13.7883 17.6165 12.5815C17.6165 11.3747 17.1297 10.2845 16.3412 9.49597L17.1366 8.70058C18.1308 9.69482 18.741 11.0662 18.741 12.5815C18.741 14.0969 18.1239 15.4683 17.1366 16.4625L16.3412 15.6671ZM9.37462 16.4625C8.38038 15.4683 7.77012 14.0969 7.77012 12.5815C7.77012 11.0662 8.38724 9.69482 9.37462 8.70058L10.17 9.49597C9.38148 10.2845 8.89464 11.3747 8.89464 12.5815C8.89464 13.7883 9.38148 14.8786 10.17 15.6671L9.37462 16.4625ZM6.92673 18.9104C5.30852 17.2922 4.30742 15.05 4.30742 12.5815C4.30742 10.1062 5.30852 7.8709 6.92673 6.25269L7.72212 7.04808C6.30276 8.46745 5.43194 10.4216 5.43194 12.5815C5.43194 14.7414 6.30962 16.7025 7.72212 18.115L6.92673 18.9104Z" fill="black"/>
</svg>
