<svg width="187" height="51" viewBox="0 0 187 51" fill="none" xmlns="http://www.w3.org/2000/svg">
<rect x="0.5" y="0.5" width="186" height="50" rx="7.5" stroke="black"/>
<path d="M39 43C29.6094 43 22 35.3906 22 26C22 16.6094 29.6094 9 39 9C48.3906 9 56 16.6094 56 26C56 35.3906 48.3906 43 39 43ZM35.3911 41.0417C36.305 40.3423 37.1909 39.531 38.0115 38.6171C37.5919 38.1322 37.1909 37.6286 36.7992 37.0971L35.2326 41.0044C35.2885 41.0137 35.3352 41.0324 35.3911 41.0417ZM38.9814 37.4515C39.5129 36.7707 40.0071 36.034 40.4734 35.26L39 31.5952L37.5173 35.316C37.9649 36.0713 38.4591 36.7894 38.9814 37.4515ZM39.8673 38.5239C40.7159 39.475 41.6297 40.3236 42.5809 41.051C42.6462 41.0324 42.7115 41.023 42.7674 41.0044L41.1262 36.9013C40.7252 37.4701 40.3055 38.011 39.8673 38.5239ZM40.9024 41.3494C40.2123 40.8179 39.5502 40.2211 38.9067 39.5869C38.2913 40.2211 37.6478 40.8086 36.9857 41.3401C37.6478 41.424 38.3099 41.4707 39 41.4707C39.6434 41.4707 40.2776 41.424 40.9024 41.3494ZM39 10.5293C30.458 10.5293 23.5293 17.458 23.5293 26C23.5293 32.8354 27.9589 38.6264 34.1042 40.678L38.0768 28.7603C36.9205 28.378 36.0905 27.2869 36.0905 26C36.0905 24.3961 37.3961 23.0905 39 23.0905C40.604 23.0905 41.9095 24.3961 41.9095 26C41.9095 27.2869 41.0795 28.378 39.9232 28.7603L43.8958 40.678C50.0411 38.6264 54.4707 32.8354 54.4707 26C54.4707 17.458 47.542 10.5293 39 10.5293ZM47.6072 34.6072L46.5255 33.5255C48.4558 31.5952 49.6402 28.9375 49.6402 26C49.6402 23.0625 48.4465 20.3955 46.5255 18.4745L47.6072 17.3928C49.808 19.5935 51.1695 22.6429 51.1695 26C51.1788 29.3664 49.808 32.4065 47.6072 34.6072ZM43.1964 30.1964C44.2688 29.124 44.9309 27.6413 44.9309 26C44.9309 24.3588 44.2688 22.876 43.1964 21.8036L44.2781 20.7219C45.6303 22.0741 46.4602 23.9391 46.4602 26C46.4602 28.0609 45.621 29.9259 44.2781 31.2781L43.1964 30.1964ZM33.7219 31.2781C32.3697 29.9259 31.5398 28.0609 31.5398 26C31.5398 23.9391 32.379 22.0741 33.7219 20.7219L34.8036 21.8036C33.7312 22.876 33.0691 24.3588 33.0691 26C33.0691 27.6413 33.7312 29.124 34.8036 30.1964L33.7219 31.2781ZM30.3928 34.6072C28.192 32.4065 26.8305 29.3571 26.8305 26C26.8305 22.6336 28.192 19.5935 30.3928 17.3928L31.4745 18.4745C29.5442 20.4048 28.3598 23.0625 28.3598 26C28.3598 28.9375 29.5535 31.6045 31.4745 33.5255L30.3928 34.6072Z" fill="black"/>
<path d="M63.5147 21.0844V12.422H64.5637V20.1539H68.5904V21.0844H63.5147ZM70.0792 21.0844V14.5876H71.0774V21.0844H70.0792ZM70.5868 13.5048C70.3922 13.5048 70.2244 13.4385 70.0835 13.306C69.9453 13.1735 69.8762 13.0141 69.8762 12.828C69.8762 12.6419 69.9453 12.4826 70.0835 12.3501C70.2244 12.2175 70.3922 12.1513 70.5868 12.1513C70.7814 12.1513 70.9477 12.2175 71.0859 12.3501C71.2269 12.4826 71.2974 12.6419 71.2974 12.828C71.2974 13.0141 71.2269 13.1735 71.0859 13.306C70.9477 13.4385 70.7814 13.5048 70.5868 13.5048ZM77.5076 16.0426L76.6109 16.2964C76.5545 16.1469 76.4714 16.0017 76.3614 15.8607C76.2542 15.7169 76.1076 15.5985 75.9215 15.5054C75.7354 15.4124 75.4971 15.3658 75.2067 15.3658C74.8091 15.3658 74.4778 15.4575 74.2127 15.6408C73.9505 15.8212 73.8193 16.0511 73.8193 16.3302C73.8193 16.5784 73.9096 16.7743 74.09 16.9181C74.2705 17.062 74.5525 17.1818 74.936 17.2777L75.9003 17.5145C76.4812 17.6555 76.9141 17.8712 77.1989 18.1617C77.4837 18.4493 77.6261 18.8201 77.6261 19.2741C77.6261 19.6463 77.5189 19.979 77.3046 20.2723C77.0931 20.5656 76.797 20.7968 76.4164 20.966C76.0357 21.1352 75.593 21.2197 75.0882 21.2197C74.4256 21.2197 73.8771 21.0759 73.4429 20.7883C73.0086 20.5007 72.7337 20.0805 72.6181 19.5279L73.5656 19.291C73.6558 19.6407 73.8264 19.9029 74.0773 20.0777C74.3311 20.2526 74.6625 20.34 75.0713 20.34C75.5366 20.34 75.906 20.2413 76.1795 20.0439C76.4558 19.8437 76.594 19.604 76.594 19.3248C76.594 19.0993 76.5151 18.9103 76.3572 18.7581C76.1992 18.603 75.9567 18.4874 75.6296 18.4112L74.5468 18.1574C73.9519 18.0165 73.5148 17.7979 73.2356 17.5018C72.9593 17.2029 72.8211 16.8293 72.8211 16.381C72.8211 16.0144 72.924 15.6901 73.1299 15.4081C73.3386 15.1262 73.6219 14.9048 73.9801 14.7441C74.341 14.5833 74.7499 14.503 75.2067 14.503C75.8496 14.503 76.3543 14.644 76.7209 14.926C77.0903 15.2079 77.3525 15.5801 77.5076 16.0426ZM81.9541 14.5876V15.4335H78.5873V14.5876H81.9541ZM79.5685 13.0311H80.5668V19.2233C80.5668 19.5053 80.6076 19.7168 80.6894 19.8578C80.774 19.996 80.8812 20.089 81.0109 20.1369C81.1434 20.1821 81.283 20.2046 81.4296 20.2046C81.5396 20.2046 81.6298 20.199 81.7003 20.1877C81.7708 20.1736 81.8272 20.1623 81.8695 20.1539L82.0725 21.0506C82.0049 21.0759 81.9104 21.1013 81.7891 21.1267C81.6679 21.1549 81.5142 21.169 81.3281 21.169C81.0461 21.169 80.7698 21.1084 80.4991 20.9871C80.2312 20.8659 80.0084 20.6812 79.8308 20.433C79.656 20.1849 79.5685 19.8719 79.5685 19.494V13.0311ZM86.1098 21.2197C85.4838 21.2197 84.9438 21.0816 84.4898 20.8052C84.0386 20.5261 83.6904 20.1369 83.4451 19.6378C83.2026 19.1359 83.0813 18.5522 83.0813 17.8867C83.0813 17.2213 83.2026 16.6348 83.4451 16.1272C83.6904 15.6168 84.0316 15.2192 84.4687 14.9344C84.9085 14.6468 85.4217 14.503 86.0083 14.503C86.3466 14.503 86.6808 14.5594 87.0107 14.6722C87.3406 14.785 87.6409 14.9683 87.9116 15.222C88.1823 15.473 88.398 15.8057 88.5588 16.2202C88.7195 16.6348 88.7999 17.1451 88.7999 17.7514V18.1744H83.7919V17.3115H87.7847C87.7847 16.9449 87.7114 16.6178 87.5648 16.3302C87.421 16.0426 87.2151 15.8156 86.9473 15.6492C86.6822 15.4829 86.3692 15.3997 86.0083 15.3997C85.6107 15.3997 85.2667 15.4984 84.9762 15.6958C84.6886 15.8903 84.4672 16.1441 84.3122 16.4571C84.1571 16.7701 84.0795 17.1057 84.0795 17.4638V18.039C84.0795 18.5297 84.1641 18.9456 84.3333 19.2868C84.5053 19.6251 84.7436 19.8832 85.0481 20.0608C85.3527 20.2356 85.7065 20.323 86.1098 20.323C86.372 20.323 86.6089 20.2864 86.8204 20.2131C87.0347 20.1369 87.2194 20.0242 87.3745 19.8747C87.5295 19.7224 87.6494 19.5335 87.734 19.3079L88.6983 19.5786C88.5968 19.9057 88.4262 20.1933 88.1866 20.4415C87.9469 20.6868 87.6508 20.8785 87.2983 21.0167C86.9458 21.1521 86.5497 21.2197 86.1098 21.2197ZM91.3165 17.1762V21.0844H90.3183V14.5876H91.2827V15.6027H91.3673C91.5196 15.2728 91.7508 15.0077 92.061 14.8075C92.3711 14.6045 92.7715 14.503 93.2622 14.503C93.7021 14.503 94.087 14.5932 94.4169 14.7737C94.7468 14.9513 95.0034 15.222 95.1867 15.5858C95.37 15.9467 95.4616 16.4035 95.4616 16.9562V21.0844H94.4634V17.0239C94.4634 16.5135 94.3309 16.1159 94.0658 15.8311C93.8008 15.5435 93.437 15.3997 92.9746 15.3997C92.6559 15.3997 92.3711 15.4688 92.1202 15.6069C91.872 15.7451 91.6761 15.9467 91.5322 16.2118C91.3884 16.4768 91.3165 16.7983 91.3165 17.1762ZM103.275 21.2197C102.688 21.2197 102.174 21.0802 101.731 20.801C101.291 20.5218 100.947 20.1313 100.699 19.6294C100.454 19.1275 100.331 18.5409 100.331 17.8698C100.331 17.1931 100.454 16.6023 100.699 16.0976C100.947 15.5928 101.291 15.2009 101.731 14.9217C102.174 14.6426 102.688 14.503 103.275 14.503C103.861 14.503 104.375 14.6426 104.815 14.9217C105.257 15.2009 105.601 15.5928 105.847 16.0976C106.095 16.6023 106.219 17.1931 106.219 17.8698C106.219 18.5409 106.095 19.1275 105.847 19.6294C105.601 20.1313 105.257 20.5218 104.815 20.801C104.375 21.0802 103.861 21.2197 103.275 21.2197ZM103.275 20.323C103.72 20.323 104.087 20.2088 104.375 19.9804C104.662 19.752 104.875 19.4517 105.013 19.0795C105.152 18.7073 105.221 18.3041 105.221 17.8698C105.221 17.4356 105.152 17.0309 105.013 16.6559C104.875 16.2809 104.662 15.9777 104.375 15.7465C104.087 15.5153 103.72 15.3997 103.275 15.3997C102.829 15.3997 102.463 15.5153 102.175 15.7465C101.888 15.9777 101.675 16.2809 101.537 16.6559C101.398 17.0309 101.329 17.4356 101.329 17.8698C101.329 18.3041 101.398 18.7073 101.537 19.0795C101.675 19.4517 101.888 19.752 102.175 19.9804C102.463 20.2088 102.829 20.323 103.275 20.323ZM108.741 17.1762V21.0844H107.743V14.5876H108.707V15.6027H108.792C108.944 15.2728 109.175 15.0077 109.485 14.8075C109.795 14.6045 110.196 14.503 110.686 14.503C111.126 14.503 111.511 14.5932 111.841 14.7737C112.171 14.9513 112.428 15.222 112.611 15.5858C112.794 15.9467 112.886 16.4035 112.886 16.9562V21.0844H111.888V17.0239C111.888 16.5135 111.755 16.1159 111.49 15.8311C111.225 15.5435 110.861 15.3997 110.399 15.3997C110.08 15.3997 109.795 15.4688 109.544 15.6069C109.296 15.7451 109.1 15.9467 108.956 16.2118C108.813 16.4768 108.741 16.7983 108.741 17.1762Z" fill="#4F4E4E"/>
<path d="M75.2754 31.3702C75.2754 32.7679 75.0197 33.9696 74.5084 34.9753C73.997 35.9767 73.296 36.748 72.4054 37.2892C71.519 37.8261 70.5112 38.0946 69.382 38.0946C68.2484 38.0946 67.2364 37.8261 66.3457 37.2892C65.4594 36.748 64.7605 35.9746 64.2491 34.9689C63.7378 33.9632 63.4821 32.7636 63.4821 31.3702C63.4821 29.9724 63.7378 28.7728 64.2491 27.7714C64.7605 26.7657 65.4594 25.9944 66.3457 25.4575C67.2364 24.9163 68.2484 24.6457 69.382 24.6457C70.5112 24.6457 71.519 24.9163 72.4054 25.4575C73.296 25.9944 73.997 26.7657 74.5084 27.7714C75.0197 28.7728 75.2754 29.9724 75.2754 31.3702ZM73.3195 31.3702C73.3195 30.3048 73.1469 29.4078 72.8017 28.6791C72.4608 27.9461 71.992 27.3922 71.3955 27.0172C70.8031 26.6379 70.132 26.4483 69.382 26.4483C68.6277 26.4483 67.9544 26.6379 67.3621 27.0172C66.7697 27.3922 66.301 27.9461 65.9558 28.6791C65.6149 29.4078 65.4445 30.3048 65.4445 31.3702C65.4445 32.4355 65.6149 33.3346 65.9558 34.0676C66.301 34.7963 66.7697 35.3503 67.3621 35.7295C67.9544 36.1045 68.6277 36.292 69.382 36.292C70.132 36.292 70.8031 36.1045 71.3955 35.7295C71.992 35.3503 72.4608 34.7963 72.8017 34.0676C73.1469 33.3346 73.3195 32.4355 73.3195 31.3702ZM82.1676 28.0974V29.6315H76.8047V28.0974H82.1676ZM78.2429 25.7452H80.1542V35.0328C80.1542 35.4035 80.2096 35.6827 80.3203 35.8702C80.4311 36.0534 80.5739 36.1791 80.7486 36.2473C80.9276 36.3112 81.1215 36.3432 81.3303 36.3432C81.4837 36.3432 81.6179 36.3325 81.733 36.3112C81.848 36.2899 81.9375 36.2728 82.0015 36.2601L82.3466 37.8389C82.2358 37.8815 82.0782 37.9241 81.8736 37.9667C81.6691 38.0136 81.4134 38.0392 81.1066 38.0434C80.6037 38.052 80.135 37.9625 79.7003 37.775C79.2657 37.5875 78.9141 37.2977 78.6456 36.9057C78.3772 36.5136 78.2429 36.0214 78.2429 35.4291V25.7452ZM86.404 32.0861V37.9156H84.4928V24.8247H86.3784V29.6954H86.4999C86.73 29.167 87.0815 28.7473 87.5545 28.4362C88.0276 28.1251 88.6455 27.9696 89.4082 27.9696C90.0815 27.9696 90.6696 28.1081 91.1724 28.3851C91.6795 28.6621 92.0716 29.0754 92.3486 29.6251C92.6298 30.1706 92.7705 30.8524 92.7705 31.6706V37.9156H90.8592V31.9007C90.8592 31.1805 90.6739 30.6223 90.3031 30.226C89.9324 29.8254 89.4168 29.6251 88.7563 29.6251C88.3045 29.6251 87.8997 29.721 87.5418 29.9128C87.1881 30.1045 86.9089 30.3858 86.7044 30.7565C86.5041 31.123 86.404 31.5662 86.404 32.0861ZM99.5524 38.1138C98.5851 38.1138 97.752 37.9071 97.0531 37.4937C96.3585 37.0761 95.8216 36.4902 95.4423 35.7359C95.0673 34.9774 94.8798 34.0889 94.8798 33.0704C94.8798 32.0648 95.0673 31.1784 95.4423 30.4113C95.8216 29.6443 96.35 29.0456 97.0276 28.6152C97.7094 28.1848 98.5063 27.9696 99.4182 27.9696C99.9722 27.9696 100.509 28.0612 101.029 28.2444C101.549 28.4277 102.015 28.7153 102.429 29.1074C102.842 29.4994 103.168 30.0086 103.407 30.6351C103.645 31.2572 103.765 32.0136 103.765 32.9042V33.5818H95.9601V32.15H101.892C101.892 31.6471 101.79 31.2018 101.585 30.814C101.381 30.422 101.093 30.113 100.722 29.8872C100.356 29.6613 99.9253 29.5484 99.431 29.5484C98.894 29.5484 98.4253 29.6805 98.0247 29.9447C97.6284 30.2047 97.3216 30.5456 97.1043 30.9675C96.8912 31.3851 96.7847 31.8389 96.7847 32.329V33.4476C96.7847 34.1038 96.8997 34.6621 97.1298 35.1223C97.3642 35.5825 97.6902 35.9341 98.1078 36.177C98.5254 36.4156 99.0134 36.5349 99.5716 36.5349C99.9338 36.5349 100.264 36.4838 100.562 36.3815C100.861 36.275 101.118 36.1173 101.336 35.9085C101.553 35.6997 101.719 35.4419 101.834 35.1351L103.643 35.4611C103.498 35.9937 103.238 36.4603 102.863 36.8609C102.493 37.2572 102.026 37.5662 101.464 37.7878C100.905 38.0051 100.268 38.1138 99.5524 38.1138ZM105.885 37.9156V28.0974H107.733V29.6571H107.835C108.014 29.1287 108.329 28.7132 108.781 28.4106C109.237 28.1038 109.753 27.9504 110.328 27.9504C110.447 27.9504 110.588 27.9547 110.75 27.9632C110.916 27.9717 111.046 27.9824 111.14 27.9952V29.8233C111.063 29.802 110.927 29.7785 110.731 29.753C110.534 29.7231 110.338 29.7082 110.142 29.7082C109.691 29.7082 109.288 29.8041 108.934 29.9959C108.585 30.1834 108.308 30.4454 108.103 30.7821C107.899 31.1145 107.797 31.4937 107.797 31.9199V37.9156H105.885ZM120.151 30.4944L118.419 30.8013C118.346 30.5797 118.231 30.3687 118.073 30.1684C117.92 29.9682 117.711 29.8041 117.447 29.6763C117.183 29.5484 116.852 29.4845 116.456 29.4845C115.915 29.4845 115.463 29.6059 115.101 29.8488C114.739 30.0875 114.558 30.3964 114.558 30.7757C114.558 31.1038 114.679 31.368 114.922 31.5683C115.165 31.7686 115.557 31.9327 116.098 32.0605L117.658 32.4184C118.561 32.6273 119.235 32.949 119.678 33.3836C120.121 33.8183 120.343 34.3829 120.343 35.0775C120.343 35.6656 120.172 36.1898 119.831 36.65C119.495 37.1059 119.024 37.4639 118.419 37.7238C117.818 37.9838 117.121 38.1138 116.328 38.1138C115.229 38.1138 114.332 37.8794 113.637 37.4106C112.943 36.9376 112.517 36.2665 112.359 35.3971L114.206 35.1159C114.321 35.5974 114.558 35.9618 114.916 36.2089C115.274 36.4518 115.74 36.5733 116.316 36.5733C116.942 36.5733 117.443 36.4433 117.818 36.1834C118.193 35.9192 118.38 35.5974 118.38 35.2182C118.38 34.9113 118.265 34.6535 118.035 34.4447C117.809 34.2359 117.462 34.0782 116.993 33.9717L115.331 33.6074C114.415 33.3986 113.737 33.0662 113.299 32.6102C112.864 32.1542 112.647 31.5768 112.647 30.878C112.647 30.2984 112.808 29.7913 113.132 29.3567C113.456 28.922 113.904 28.5832 114.475 28.3403C115.046 28.0932 115.7 27.9696 116.437 27.9696C117.498 27.9696 118.333 28.1997 118.943 28.6599C119.552 29.1159 119.955 29.7274 120.151 30.4944Z" fill="black"/>
</svg>
