<svg width="10" height="13" viewBox="0 0 10 13" fill="none" xmlns="http://www.w3.org/2000/svg">
<path d="M1.36719 12.7983C0.671387 12.7983 0.3125 12.4395 0.319824 11.751V1.68018C0.319824 0.991699 0.678711 0.632812 1.36719 0.632812H3.08105C3.77686 0.640137 4.12842 0.969727 4.12842 1.68018V11.751C4.12842 12.4395 3.77686 12.7983 3.08105 12.7983H1.36719ZM6.91162 12.7983C6.21582 12.7983 5.86426 12.4395 5.86426 11.751V1.68018C5.86426 0.991699 6.21582 0.632812 6.91162 0.632812H8.62549C9.31396 0.632812 9.67285 0.969727 9.67285 1.68018V11.751C9.67285 12.4395 9.31396 12.7983 8.62549 12.7983H6.91162Z" fill="white"/>
</svg>
