<svg width="84" height="67" viewBox="0 0 84 67" fill="none" xmlns="http://www.w3.org/2000/svg">
<path d="M55.2109 22.3166L55.2109 22.3166L55.2083 22.3202C48.8981 30.9716 45.7316 40.0412 45.7316 49.5224C45.7316 54.9843 46.9479 59.2213 49.4358 62.1775L49.4357 62.1776L49.4426 62.1854C51.9431 64.9914 55.5937 66.3684 60.3294 66.3684C64.4217 66.3684 68.1902 65.2325 71.6265 62.9642L71.6297 62.962C75.2096 60.5451 78.0618 57.5608 80.181 54.0097L80.1811 54.0097L80.1846 54.0035C82.3046 50.2896 83.3684 46.4062 83.3684 42.3582C83.3684 38.7846 82.3009 35.9725 80.1241 33.9769C78.1057 31.8186 75.1845 30.766 71.4235 30.766C68.7895 30.766 66.1629 31.4181 63.5469 32.7124C61.3695 33.7191 59.3233 35.0445 57.4085 36.6867C58.0646 30.908 60.6492 25.3981 65.1884 20.1537C70.1418 14.6166 76.1361 9.94668 83.1751 6.14501L83.4429 6.00034L83.3513 5.71002L82.1454 1.88913L82.0198 1.49103L81.6404 1.66524C70.4982 6.78185 61.6839 13.664 55.2109 22.3166ZM37.2866 1.88913L37.1609 1.49103L36.7816 1.66524C25.6393 6.78185 16.8251 13.664 10.3521 22.3166C3.88018 30.9679 0.631631 40.0387 0.631631 49.5224C0.631631 54.9843 1.84788 59.2213 4.33581 62.1775L4.3357 62.1776L4.34263 62.1854C6.8431 64.9914 10.4937 66.3684 15.2294 66.3684C19.4794 66.3684 23.3289 65.2341 26.7676 62.9641L26.7678 62.9643L26.7774 62.9575C30.1953 60.5401 32.9641 57.5569 35.081 54.0097L35.0811 54.0097L35.0846 54.0035C37.2046 50.2896 38.2684 46.4062 38.2684 42.3582C38.2684 38.7903 37.2847 35.98 35.2703 33.9822C33.2488 31.8173 30.2428 30.766 26.3235 30.766C23.6905 30.766 21.1425 31.4176 18.6837 32.7145C16.5079 33.7209 14.4632 35.0456 12.5497 36.6867C13.2059 30.9072 15.7911 25.3966 20.3315 20.1515C25.1219 14.6176 31.1139 9.94851 38.3132 6.14663L38.585 6.00311L38.4925 5.71002L37.2866 1.88913Z" fill="#FBF0D1" stroke="#F2DEA7" style="fill:#FBF0D1;fill:color(display-p3 0.9843 0.9412 0.8196);fill-opacity:1;stroke:#F2DEA7;stroke:color(display-p3 0.9490 0.8706 0.6549);stroke-opacity:1;" stroke-width="0.736739"/>
</svg>
