<svg width="34" height="33" viewBox="0 0 34 33" fill="none" xmlns="http://www.w3.org/2000/svg">
<path d="M12.0421 10.9321L12.0443 10.9357C14.5238 15.0189 15.7684 19.3009 15.7684 23.7761C15.7684 26.3505 15.2923 28.3777 14.2899 29.8084L14.29 29.8085L14.2841 29.8165C13.2622 31.1939 11.7631 31.8684 9.84706 31.8684C8.18915 31.8684 6.66652 31.3139 5.28877 30.2215L5.28876 30.2215L5.28562 30.219C3.86292 29.0652 2.73205 27.6425 1.89363 25.955L1.89358 25.955L1.89082 25.9492C1.0521 24.1843 0.63163 22.3393 0.63163 20.4179C0.63163 18.7236 1.05153 17.3582 1.94145 16.3746C2.77657 15.306 3.98857 14.7883 5.51764 14.7883C6.59639 14.7883 7.66303 15.1094 8.71296 15.7328C9.40918 16.1198 10.0696 16.6033 10.6945 17.1814C10.3581 14.7198 9.38378 12.3648 7.76165 10.1132C5.84328 7.53774 3.52319 5.36704 0.799515 3.60008L0.576027 3.45509L0.643723 3.19743L1.11431 1.40639L1.23447 0.949068L1.6485 1.17745C6.03064 3.59459 9.49762 6.8466 12.0421 10.9321ZM18.6202 1.40639L18.7403 0.949068L19.1544 1.17745C23.5365 3.59459 27.0035 6.8466 29.548 10.9321C32.0912 15.0157 33.3684 19.2989 33.3684 23.7761C33.3684 26.3505 32.8923 28.3777 31.8899 29.8084L31.89 29.8085L31.8841 29.8165C30.8622 31.1939 29.3631 31.8684 27.4471 31.8684C25.7299 31.8684 24.1753 31.3162 22.7947 30.2215L22.7945 30.2216L22.785 30.2136C21.427 29.0599 20.3302 27.6387 19.4936 25.955L19.4936 25.955L19.4908 25.9492C18.6521 24.1843 18.2316 22.3393 18.2316 20.4179C18.2316 18.7271 18.6184 17.3643 19.4428 16.3804C20.2813 15.3038 21.5293 14.7883 23.1176 14.7883C24.1957 14.7883 25.2328 15.109 26.2235 15.7354C26.918 16.1219 27.5768 16.6045 28.2004 17.1814C27.8639 14.719 26.889 12.3631 25.2659 10.1109C23.412 7.53849 21.094 5.369 18.3086 3.60211L18.0812 3.45787L18.1496 3.19743L18.6202 1.40639Z" fill="#FBF0D1" stroke="#F2DEA7" style="fill:#FBF0D1;fill:color(display-p3 0.9843 0.9412 0.8196);fill-opacity:1;stroke:#F2DEA7;stroke:color(display-p3 0.9490 0.8706 0.6549);stroke-opacity:1;" stroke-width="0.736739"/>
</svg>
