<svg width="40" height="34" viewBox="0 0 40 34" fill="none" xmlns="http://www.w3.org/2000/svg">
<path d="M22.9608 32.258C22.9911 32.2888 23.9194 32.5247 25.0235 32.782C26.1277 33.0393 27.0431 33.2105 27.0578 33.1627C27.0724 33.1148 27.1867 32.3378 27.3116 31.4359C27.5626 29.6248 28.1702 27.5103 28.8195 26.1878C30.8433 22.0664 34.4745 19.3374 38.8785 18.6281L40 18.4474V16.6268V14.806L38.9835 14.633C32.324 13.5003 27.9823 8.45185 27.1701 0.896832C27.1172 0.403496 27.0538 -1.52588e-05 27.0294 -1.52588e-05C26.8048 -1.52588e-05 23.0832 0.909309 23.0128 0.981346C22.962 1.03344 22.9998 1.49592 23.0971 2.00891C24.174 7.68946 27.2575 12.3119 31.2589 14.2446L32.2187 14.7082L12.4809 14.7445L0 14.7676L0 18.4523L12.513 18.4754L32.2043 18.5119L30.9925 19.1343C27.8489 20.7491 25.36 23.9166 23.8943 28.1682C23.4766 29.3795 22.8464 32.1409 22.9608 32.258Z" fill="black" style="fill:black;fill:black;fill-opacity:1;"/>
</svg>
