<svg width="26" height="25" viewBox="0 0 26 25" fill="none" xmlns="http://www.w3.org/2000/svg">
<path d="M22.5016 19.8368C22.5342 19.8368 23.1573 19.4635 23.886 19.0072C24.6148 18.5507 25.1967 18.1501 25.1793 18.1169C25.1618 18.0837 24.8118 17.6111 24.4014 17.0666C23.5775 15.9733 22.7843 14.5278 22.4327 13.4794C21.3372 10.2116 21.8414 6.81823 23.8295 4.07919L24.3358 3.38168L23.372 2.41793L22.4082 1.45411L21.7711 1.9081C17.5975 4.88253 12.5951 4.54029 8.16 0.977009C7.87041 0.74431 7.62281 0.564727 7.60971 0.57782C7.48917 0.698361 5.97323 3.17699 5.97358 3.2529C5.97384 3.30778 6.23897 3.53228 6.56274 3.75161C10.1476 6.18059 14.2493 6.97256 17.4199 5.84816L18.1804 5.57845L7.60669 16.1906L0.920608 22.9011L2.87109 24.8516L9.59882 18.1483L20.1861 7.59961L19.8652 8.57945C19.0328 11.1213 19.3738 14.1338 20.8377 17.1709C21.2547 18.0362 22.3782 19.8362 22.5016 19.8368Z" fill="black" style="fill:black;fill:black;fill-opacity:1;"/>
</svg>
