<svg width="187" height="51" viewBox="0 0 187 51" fill="none" xmlns="http://www.w3.org/2000/svg">
<rect x="0.5" y="0.5" width="186" height="50" rx="7.5" stroke="black" style="stroke:black;stroke:black;stroke-opacity:1;"/>
<path fill-rule="evenodd" clip-rule="evenodd" d="M24.284 29.2869H20V22.6392H21.2927V28.0681H24.2472L24.284 29.2869ZM27.3492 29.2869H26.0196V22.6392H27.3492V29.2869ZM34.2554 24.227L33.0738 24.5963C32.9631 24.0055 32.4458 23.5994 31.855 23.673C31.3381 23.6362 30.858 24.0051 30.8209 24.5224C30.8209 24.8918 31.0423 25.1872 31.5596 25.2611L32.483 25.4458C33.7018 25.6672 34.3293 26.4799 34.3293 27.4033C34.3293 28.3267 33.4799 29.4715 31.9289 29.4715C30.1561 29.4715 29.3806 28.3267 29.2699 27.4033L30.4887 27.0707C30.5255 27.8094 31.1534 28.3635 31.8922 28.3263C31.9289 28.3263 31.9289 28.3263 31.9661 28.3263C32.6676 28.3263 33.0742 27.9941 33.0742 27.5136C33.0742 27.1443 32.7788 26.8121 32.2615 26.7381L31.3381 26.5535C30.3412 26.4427 29.6025 25.6301 29.6025 24.6331C29.6764 23.4143 30.7105 22.4909 31.9293 22.5281C33.4799 22.4913 34.1075 23.4515 34.2554 24.227ZM41.2724 23.8576H39.1674V29.2865H37.8746V23.8576H35.7696V22.6021H41.3091V23.8576H41.2724ZM47.218 29.2869H43.0448V22.6025H47.218V23.858H44.3375V25.3722H46.9226V26.5171H44.3375V28.0313H47.218V29.2869ZM55.0105 29.2869H53.6442L50.6158 24.5596V29.2869H49.3231V22.6392H50.948L53.7178 27.0711V22.6392H55.0105V29.2869ZM61.2892 25.9998C61.2152 27.1447 62.1018 28.142 63.2467 28.1788C64.3915 28.2527 65.3889 27.3661 65.4256 26.2213C65.4256 26.1473 65.4256 26.0734 65.4256 25.9998C65.4996 24.855 64.613 23.8576 63.4681 23.8209C62.3233 23.7469 61.3259 24.6335 61.2892 25.7784C61.2892 25.8519 61.2892 25.9259 61.2892 25.9998ZM59.9596 25.9998C59.8857 24.1163 61.3631 22.5281 63.2467 22.4546C65.1302 22.3806 66.7184 23.858 66.7919 25.7416C66.7919 25.8156 66.7919 25.9263 66.7919 26.0002C66.8659 27.8838 65.3885 29.4719 63.5049 29.5455C61.6213 29.6194 60.0332 28.142 59.9596 26.2585C59.9596 26.1845 59.9596 26.0738 59.9596 25.9998ZM74.5104 29.2869H73.1441L70.1157 24.5596V29.2869H68.823V22.6025H70.4479L73.2177 27.0343V22.6025H74.5104V29.2869Z" fill="black" style="fill:black;fill:black;fill-opacity:1;"/>
<path fill-rule="evenodd" clip-rule="evenodd" d="M101.547 24.5226C102.138 24.818 102.877 24.5965 103.172 24.0057C103.468 23.4517 103.283 22.7869 102.766 22.4176C97.965 19.5738 90.3944 19.2784 85.8146 20.6819C85.1866 20.9034 84.8544 21.6053 85.0759 22.2329C85.2973 22.8237 85.8885 23.1563 86.5161 23.0084C90.5047 21.8268 97.3741 22.0482 101.547 24.5226ZM101.399 28.2157C101.695 27.7357 101.547 27.1077 101.067 26.8123C97.0783 24.3379 91.243 23.6731 86.5529 25.0766C86.036 25.2613 85.7402 25.8521 85.9621 26.3694C86.1468 26.8494 86.6636 27.1448 87.1437 26.9973C91.243 25.7418 96.5243 26.3694 100.033 28.5115C100.476 28.8437 101.104 28.6958 101.399 28.2157ZM99.8113 31.761C100.033 31.3916 99.9221 30.8748 99.5527 30.6529C96.155 28.5479 91.9078 28.0678 86.9962 29.2127C86.5529 29.3606 86.3314 29.8035 86.4422 30.2096C86.5529 30.6158 86.959 30.8376 87.3284 30.7637C91.8338 29.7295 95.6009 30.1357 98.6661 32.0192C99.1098 32.2411 99.5899 32.1304 99.8113 31.761ZM93.9024 13.0002C101.067 12.9634 106.939 18.7616 106.976 25.9261C107.013 33.0905 101.215 38.9626 94.0503 38.9998C86.8859 39.037 81.0137 33.2384 80.9766 26.074C80.9766 26.0372 80.9766 26.0372 80.9766 26C80.9766 18.8723 86.738 13.0369 93.9024 13.0002ZM116.135 25.0027C118.868 25.6674 119.976 26.7015 119.976 28.5851C119.976 30.8008 118.314 32.2043 115.692 32.2043C113.882 32.2043 112.109 31.5395 110.78 30.3208C110.706 30.2468 110.706 30.1728 110.78 30.0993L111.998 28.6219C112.035 28.5851 112.072 28.5851 112.109 28.5851C112.146 28.5851 112.183 28.5851 112.22 28.6219C113.18 29.5453 114.436 30.0993 115.765 30.0993C116.947 30.0993 117.649 29.5824 117.649 28.7698C117.649 27.9571 117.279 27.6249 115.174 27.1077C112.663 26.4797 111.223 25.7042 111.223 23.4885C111.223 21.4202 112.884 19.9432 115.322 19.9432C116.873 19.9064 118.387 20.4601 119.606 21.4206C119.68 21.4574 119.68 21.5685 119.643 21.6053L118.535 23.1563C118.498 23.1931 118.461 23.1931 118.424 23.2302C118.387 23.2302 118.35 23.2302 118.313 23.2302C117.464 22.5287 116.393 22.1222 115.285 22.0854C114.251 22.0854 113.549 22.5655 113.549 23.341C113.55 24.1164 113.882 24.4858 116.135 25.0027ZM127.695 27.5142C127.695 25.9632 126.698 24.8552 125.368 24.8552C124.002 24.8552 122.968 26 122.968 27.5142C122.968 29.0284 124.002 30.1732 125.368 30.1732C126.734 30.1732 127.695 29.102 127.695 27.5142ZM125.811 22.7869C127.916 22.7869 130.021 24.4118 130.021 27.5142C130.021 30.6166 127.916 32.2415 125.811 32.2415C124.74 32.2783 123.706 31.7982 123.004 30.9487V34.5679C123.004 34.6419 122.93 34.7159 122.856 34.7159H120.862C120.788 34.7159 120.714 34.6419 120.714 34.5679V23.1563C120.714 23.0823 120.788 23.0084 120.862 23.0084H122.856C122.93 23.0084 123.004 23.0823 123.004 23.1563V24.1904C123.669 23.267 124.703 22.7869 125.811 22.7869ZM135.413 30.21C136.78 30.21 137.925 29.102 137.925 27.7357C137.925 27.6989 137.925 27.6249 137.925 27.5878C137.999 26.1843 136.927 24.9655 135.524 24.8919C135.487 24.8919 135.45 24.8919 135.413 24.8919C134.047 24.8919 132.939 26 132.939 27.3663C132.939 27.4403 132.939 27.477 132.939 27.551C132.865 28.9545 133.936 30.1732 135.339 30.2468C135.376 30.21 135.413 30.21 135.413 30.21ZM135.413 22.7869C138.036 22.8237 140.104 24.9659 140.067 27.5882C140.03 30.2104 137.888 32.2783 135.266 32.2415C132.717 32.2047 130.649 30.0993 130.612 27.5514C130.575 24.9663 132.68 22.8241 135.266 22.7873C135.34 22.7869 135.376 22.7869 135.413 22.7869ZM145.976 22.9716C146.05 22.9716 146.124 23.0456 146.124 23.1195V24.8552C146.124 24.9291 146.05 25.0031 145.976 25.0031H143.76V29.1395C143.76 29.8043 144.055 30.0997 144.683 30.0997C145.089 30.0997 145.496 29.989 145.865 29.8043C145.939 29.7675 146.013 29.8043 146.05 29.8783C146.05 29.915 146.05 29.915 146.05 29.9522V31.6143C146.05 31.6511 146.013 31.725 145.976 31.725C145.422 32.0572 144.757 32.2051 144.092 32.2051C142.319 32.2051 141.433 31.2817 141.433 29.4721V25.0035H140.473C140.399 25.0035 140.325 24.9295 140.325 24.8556V23.1199C140.325 23.046 140.399 22.972 140.473 22.972H141.47V20.7191C141.47 20.6451 141.544 20.5712 141.618 20.5712H143.612C143.686 20.5712 143.76 20.6451 143.76 20.7191V22.972L145.976 22.9716ZM153.62 22.9716H157.018C157.092 22.9716 157.129 23.0084 157.166 23.0823L159.493 29.2131L161.635 23.0823C161.672 23.0084 161.709 22.9716 161.783 22.9716H163.851C163.888 22.9716 163.925 23.0084 163.962 23.0456C163.999 23.0823 163.999 23.1195 163.962 23.1935L160.49 32.2047C159.789 34.0511 158.976 34.753 157.498 34.753C156.76 34.753 156.021 34.5683 155.356 34.199C155.282 34.1622 155.246 34.0883 155.282 34.0143L155.947 32.5001C155.947 32.4633 155.984 32.4262 156.021 32.4262C156.058 32.4262 156.095 32.4262 156.132 32.4262C156.464 32.6108 156.833 32.7216 157.24 32.7583C157.683 32.7583 158.015 32.6104 158.311 31.9089L155.467 25.0398H153.621V31.9461C153.621 32.02 153.547 32.094 153.473 32.094H151.478C151.405 32.094 151.331 32.02 151.331 31.9461V25.077H150.37C150.296 25.077 150.222 25.0031 150.222 24.9291V23.1931C150.222 23.1191 150.296 23.0451 150.37 23.0451H151.331V22.5283C151.331 20.5708 152.291 19.4999 154.137 19.4999C154.692 19.4999 155.246 19.5738 155.8 19.7213C155.874 19.7581 155.91 19.7953 155.91 19.8692V21.5314C155.91 21.5681 155.874 21.6053 155.836 21.6421C155.8 21.6788 155.762 21.6788 155.688 21.6421C155.319 21.4942 154.95 21.4206 154.58 21.4206C153.879 21.4206 153.583 21.79 153.583 22.6022L153.62 22.9716ZM149.189 22.9716C149.263 22.9716 149.337 23.0456 149.337 23.1195V31.8721C149.337 31.9461 149.263 32.02 149.189 32.02H147.194C147.121 32.02 147.047 31.9461 147.047 31.8721V23.1195C147.047 23.0456 147.121 22.9716 147.194 22.9716H149.189ZM148.191 18.983C149.004 18.983 149.632 19.611 149.632 20.4233C149.632 21.2355 149.004 21.8635 148.191 21.8635C147.379 21.8635 146.751 21.2355 146.751 20.4233C146.751 19.6478 147.416 18.983 148.191 18.983ZM165.771 23.8578H165.401V24.3379H165.771C165.955 24.3379 166.066 24.2639 166.066 24.1164C166.066 23.9685 165.955 23.8578 165.771 23.8578ZM166.029 24.5226L166.435 25.0766H166.103L165.733 24.5597H165.438V25.0766H165.143V23.5992H165.844C166.177 23.5992 166.398 23.7839 166.398 24.0793C166.362 24.3011 166.214 24.4858 166.029 24.5226ZM165.697 23.1191C164.996 23.1191 164.404 23.6731 164.404 24.3747C164.404 25.0762 164.958 25.6674 165.66 25.6674C166.361 25.6674 166.953 25.1134 166.953 24.4118C166.953 24.4118 166.953 24.4118 166.953 24.3751C166.989 23.6731 166.435 23.1191 165.697 23.1191C165.734 23.1191 165.734 23.1191 165.697 23.1191ZM165.697 25.7781C164.922 25.7781 164.257 25.1502 164.257 24.3747C164.257 23.5992 164.885 22.9344 165.66 22.9344C166.436 22.9344 167.101 23.5624 167.101 24.3379C167.137 25.1506 166.509 25.7781 165.697 25.7781Z" fill="black" style="fill:black;fill:black;fill-opacity:1;"/>
</svg>
