<svg width="26" height="26" viewBox="0 0 26 26" fill="none" xmlns="http://www.w3.org/2000/svg">
<path fill-rule="evenodd" clip-rule="evenodd" d="M20.5354 11.1609C21.1034 11.445 21.8138 11.232 22.0978 10.664C22.3819 10.1312 22.2043 9.49204 21.7073 9.13689C17.0907 6.40254 9.81121 6.1185 5.40755 7.46799C4.80371 7.68093 4.48431 8.35587 4.69725 8.95931C4.91018 9.5274 5.47866 9.84719 6.08211 9.70498C9.91729 8.56881 16.5226 8.78174 20.5354 11.1609ZM20.3931 14.7121C20.6772 14.2504 20.5354 13.6466 20.0733 13.3626C16.2382 10.9834 10.6272 10.3442 6.11747 11.6937C5.62049 11.8712 5.33605 12.4393 5.54938 12.9367C5.72695 13.3983 6.22393 13.6824 6.68555 13.5405C10.6272 12.3333 15.7054 12.9367 19.079 14.9965C19.5053 15.3159 20.1091 15.1737 20.3931 14.7121ZM18.8661 18.121C19.079 17.7658 18.9725 17.2688 18.6174 17.0555C15.3503 15.0315 11.2664 14.5698 6.54373 15.6707C6.11747 15.8129 5.90453 16.2387 6.011 16.6293C6.11747 17.0198 6.50798 17.2331 6.86313 17.162C11.1953 16.1676 14.8176 16.5581 17.7649 18.3693C18.1915 18.5826 18.6531 18.4761 18.8661 18.121ZM13.1844 0.0817102C20.0734 0.0463506 25.7197 5.62152 25.7554 12.5104C25.7912 19.3994 20.2156 25.0456 13.3266 25.0814C6.43765 25.1171 0.791333 19.5416 0.755585 12.6527C0.755585 12.6173 0.755585 12.6173 0.755585 12.5815C0.755585 5.72799 6.29543 0.11707 13.1844 0.0817102Z" fill="black"/>
</svg>
