<svg width="61" height="59" viewBox="0 0 61 59" fill="none" xmlns="http://www.w3.org/2000/svg">
<path d="M45.7149 33.9894C46.2533 33.3954 46.2654 32.4637 45.7149 31.869C44.8975 30.9855 43.8769 30.8507 42.7653 30.6619C40.7596 30.322 38.7805 29.8338 36.7908 29.3995C35.4767 29.1128 34.1581 28.8389 32.8379 28.5735C31.8324 26.573 30.7754 24.5995 29.6729 22.6537C28.4414 20.4808 27.2396 18.1844 25.7928 16.1584C24.9268 14.9457 23.5801 13.5718 21.9908 14.1544C20.6631 14.6412 20.4356 16.1215 20.3014 17.4046C19.1579 20.3637 18.0485 23.3399 17.0324 26.3495C15.111 26.1714 13.191 25.9769 11.2786 25.6867C8.05824 25.1977 4.68922 24.5229 1.48324 25.4454C0.524018 25.7214 -0.00829738 27.2188 0.851587 27.9518C5.06456 31.5426 9.26998 35.1496 13.552 38.6524C12.0619 44.6318 10.2428 50.6544 9.87355 56.824C9.82806 57.5783 10.5681 58.3986 11.3052 58.3234C12.6284 58.1879 13.2866 57.6074 14.2276 56.6409C15.4666 55.3678 16.8406 54.292 18.251 53.2311C20.6835 51.4017 23.1919 49.6808 25.7048 47.972C28.8024 50.1151 31.9887 52.1177 35.0453 54.3183C36.8211 55.597 39.1574 58.4065 41.549 58.0885C42.4142 57.9736 43.2483 57.2164 42.9291 56.1903C42.0881 53.4837 41.8409 50.6807 40.8324 48.0167C39.8095 45.3151 38.8397 42.5909 37.8137 39.89C37.816 39.8886 37.819 39.8864 37.8213 39.885C40.5321 38.0861 43.4864 36.4504 45.7149 33.9894Z" fill="#E2BF5C" style="fill:#E2BF5C;fill:color(display-p3 0.8863 0.7490 0.3608);fill-opacity:1;"/>
<path d="M39.6617 14.246C39.6632 14.2467 39.6648 14.2481 39.6663 14.2488C39.1014 15.7362 38.5675 17.2364 38.0041 18.7238C37.4483 20.1906 37.3126 21.7348 36.8493 23.225C36.6734 23.7899 37.1329 24.2071 37.6091 24.2703C38.9262 24.4455 40.213 22.8978 41.1904 22.1939C42.8738 20.9818 44.6284 19.8791 46.3338 18.699C47.7177 19.6399 49.0992 20.5873 50.4383 21.595C51.2148 22.179 51.9723 22.7715 52.654 23.4726C53.1719 24.0049 53.5351 24.3242 54.2631 24.3994C54.6688 24.4413 55.076 23.9893 55.0509 23.5734C54.8477 20.1757 53.846 16.8596 53.0248 13.5669C55.3831 11.6381 57.6988 9.65112 60.0192 7.67408C60.4931 7.2703 60.1996 6.4457 59.6711 6.29384C57.9058 5.78574 56.0503 6.1576 54.2767 6.42655C53.2235 6.58622 52.1665 6.69338 51.1087 6.79131C50.5491 5.13431 49.9386 3.49505 49.3085 1.86573C49.235 1.15894 49.1091 0.343568 48.3781 0.0760366C47.5031 -0.244718 46.7607 0.511746 46.2845 1.17951C45.4883 2.29576 44.8264 3.55963 44.1477 4.75678C43.5403 5.82833 42.9587 6.91477 42.4052 8.01684C41.678 8.16302 40.9523 8.31346 40.2282 8.4717C39.1325 8.71085 38.0428 8.97909 36.938 9.16644C36.3261 9.27004 35.7635 9.34456 35.3138 9.83137C35.0105 10.1592 35.0173 10.6716 35.3138 10.9994C36.5422 12.3541 38.1694 13.2547 39.6617 14.246Z" fill="black" style="fill:black;fill:black;fill-opacity:1;"/>
</svg>
